<svg width="125" height="40" viewBox="0 0 125 40" fill="none" xmlns="http://www.w3.org/2000/svg">
<g clip-path="url(#clip0_204_7148)">
<path d="M116.647 12.0168L118.59 9.01198V12.0168H116.647ZM125.126 0.306641C125.134 0.306641 125.142 0.314365 125.142 0.32209V10.8079C125.146 16.6031 120.453 21.3033 114.658 21.3092H104.192C104.184 21.3092 104.177 21.3014 104.177 21.2937V10.8079C104.173 5.0127 108.865 0.312434 114.66 0.306641H125.126ZM114.286 13.3183H110.836C110.836 12.571 112.028 11.7831 112.561 11.3621C113.094 10.9411 114.413 9.99491 114.127 8.54852C113.847 7.13497 112.465 6.59426 111.566 6.59426C110.669 6.59426 109.221 7.00172 108.56 8.24727C108.56 8.24727 109.743 9.04867 109.833 9.1375C110.281 8.45197 111.138 7.97499 111.78 8.28782C112.505 8.63735 112.361 9.42331 111.974 9.74773C111.77 9.92539 110.477 10.862 109.821 11.4857C109.164 12.1094 108.303 13.4168 108.303 14.9616H114.29L114.286 13.3183ZM121.019 12.0168H120.3V6.83372H118.474L114.998 12.0476V13.4728H118.59V14.9539H120.302V13.4921H121.021L121.019 12.0168Z" fill="#32D2C8"/>
<path d="M120.304 14.8923V13.4382H121.022L121.02 11.9687H120.302V6.80686H118.475L114.999 11.9995V13.4189H118.59V14.8942H120.304V14.8923ZM118.59 11.9687H116.648L118.59 8.97547V11.9687ZM111.781 8.25517C111.138 7.94426 110.281 8.41932 109.833 9.10099C109.743 9.01216 108.56 8.21461 108.56 8.21461C109.221 6.97486 110.669 6.56934 111.567 6.56934C112.465 6.56934 113.847 7.10811 114.128 8.51586C114.414 9.95645 113.095 10.8989 112.561 11.3179C112.028 11.7369 110.837 12.521 110.837 13.2664H114.286L114.29 14.9019H108.303C108.303 13.3629 109.164 12.0613 109.821 11.4415C110.477 10.8196 111.77 9.88693 111.974 9.71121C112.361 9.38486 112.505 8.60277 111.781 8.25517Z" fill="white"/>
<path d="M116.647 11.9685L118.59 8.97529V11.9685H116.647ZM125.126 0.306641C125.134 0.306641 125.142 0.314365 125.142 0.32209V10.7635C125.146 16.5335 120.453 21.2164 114.658 21.2203H104.192C104.184 21.2203 104.177 21.2126 104.177 21.2048V10.7635C104.173 4.99339 108.865 0.310503 114.66 0.306641H125.126ZM114.286 13.2643H110.836C110.836 12.5208 112.028 11.7348 112.561 11.3158C113.094 10.8967 114.413 9.95435 114.127 8.51376C113.847 7.106 112.465 6.56723 111.566 6.56723C110.669 6.56723 109.221 6.97276 108.56 8.21251C108.56 8.21251 109.743 9.01005 109.833 9.09888C110.281 8.41527 111.138 7.94216 111.78 8.25306C112.505 8.60066 112.361 9.38468 111.974 9.70717C111.77 9.88483 110.477 10.8176 109.821 11.4374C109.164 12.0592 108.303 13.3608 108.303 14.898H114.29L114.286 13.2643ZM121.019 11.9685H120.3V6.80668H118.474L114.998 11.9994V13.4187H118.59V14.8941H120.302V13.438H121.021L121.019 11.9685Z" fill="#32D2C8"/>
<path d="M65.263 10.3816C59.2206 10.3836 54.3253 15.2847 54.3292 21.3271C54.3312 27.3695 59.2322 32.2647 65.2746 32.2609C69.8668 32.2589 73.9703 29.3875 75.5461 25.0734H70.9732C68.9012 28.2268 64.6644 29.1016 61.511 27.0296C59.8734 25.952 58.7765 24.2237 58.5003 22.2829H76.1601C76.1872 21.9681 76.2046 21.6496 76.2046 21.3174C76.2007 15.277 71.3035 10.3816 65.263 10.3816ZM58.8016 19.0985C60.0298 15.53 63.917 13.6336 67.4857 14.8617C69.4747 15.5473 71.0389 17.1096 71.7225 19.0985H58.8016ZM100.055 0.268555C97.7844 0.268555 95.9442 2.10888 95.9442 4.37984V12.782C91.2342 8.98934 84.3402 9.73474 80.5495 14.4447C76.7588 19.1546 77.5023 26.0486 82.2121 29.8393C86.9221 33.63 93.8161 32.8865 97.6068 28.1766C99.14 26.2706 99.9917 23.907 100.026 21.4603H100.055V0.268555ZM89.081 28.1477C85.3039 28.1477 82.2431 25.0869 82.2431 21.3097C82.2431 17.5325 85.3039 14.4717 89.081 14.4717C92.8583 14.4717 95.9191 17.5325 95.9191 21.3097C95.9191 21.3116 95.9191 21.3155 95.9191 21.3174C95.9152 25.0907 92.8544 28.1477 89.081 28.1477ZM25.9152 0.340005C28.1823 0.336143 30.0226 2.17261 30.0265 4.4397V32.2551H25.9152V0.340005ZM40.1724 0.328418H42.0011V3.98589H41.3909C39.9291 3.98589 38.3533 5.10207 38.3533 7.33633V11.2758H42.0224V15.0511H38.3533V32.2551H34.2421V15.0491H32.3709V11.2758H34.2421V6.36113C34.2421 2.59551 37.1522 0.328418 40.1724 0.328418ZM53.8735 10.8277V14.856C52.008 14.8482 48.646 16.2908 48.646 19.4636V32.2589H44.5231V11.2758H48.646V12.7028C50.0692 11.4051 51.9501 10.7293 53.8735 10.8277ZM11.9554 10.37C5.90913 10.37 1.0061 15.2731 1.0061 21.3193C1.0061 27.3656 5.90913 32.2686 11.9554 32.2686L22.8911 32.2512L22.9066 21.3212C22.9085 15.275 18.0055 10.372 11.9593 10.37C11.9573 10.37 11.9573 10.37 11.9554 10.37ZM18.7856 21.1243V28.1534H11.7584C7.98505 28.0453 5.01311 24.8976 5.12125 21.1243C5.22939 17.351 8.37706 14.3791 12.1504 14.4872C15.7712 14.5914 18.6833 17.5015 18.7856 21.1243Z" fill="#191E94"/>
<path d="M11.9303 19.4952L9.13415 18.4466C8.81166 18.3268 8.45441 18.4891 8.33275 18.8116C8.30765 18.8811 8.29413 18.9525 8.29413 19.0259V21.7777C8.29606 22.1214 8.57607 22.3976 8.9198 22.3957C8.99319 22.3957 9.06657 22.3822 9.13415 22.3571L11.9303 21.3181L14.7285 22.3667C15.051 22.4864 15.4083 22.3242 15.53 22.0017C15.555 21.9322 15.5685 21.8608 15.5685 21.7874V19.0279C15.5666 18.6842 15.2866 18.408 14.9428 18.41C14.8695 18.41 14.7961 18.4234 14.7285 18.4485L11.9303 19.4952Z" fill="#32D2C8"/>
</g>
<defs>
<clipPath id="clip0_204_7148">
<rect width="125" height="40" fill="white"/>
</clipPath>
</defs>
</svg>
