<svg width="184" height="33" viewBox="0 0 184 33" fill="none" xmlns="http://www.w3.org/2000/svg">
<path fill-rule="evenodd" clip-rule="evenodd" d="M16.4059 31.8632H6.75563C5.16334 31.8632 3.71604 31.2259 2.66654 30.1998C1.61705 29.1736 0.965363 27.7585 0.965363 26.2016V7.4116C0.965363 5.85469 1.61705 4.43955 2.66654 3.41338C3.71604 2.38721 5.16334 1.75 6.75563 1.75H16.4059V31.8632" fill="#FF6600"/>
<path fill-rule="evenodd" clip-rule="evenodd" d="M16.4045 1.75H176.599C178.191 1.75 179.639 2.38721 180.689 3.41338C181.738 4.43955 182.389 5.85469 182.389 7.4116V26.2016C182.389 27.7585 181.738 29.1736 180.689 30.1998C179.639 31.2259 178.191 31.8632 176.599 31.8632H16.4045V1.75" fill="#FFFFFE"/>
<path fill-rule="evenodd" clip-rule="evenodd" d="M177.565 0.806641H5.79027C2.60568 0.806641 0 3.35441 0 6.46824V27.145C0 30.2589 2.60568 32.8066 5.79027 32.8066H177.565C180.75 32.8066 183.355 30.2589 183.355 27.145V6.46824C183.355 3.35441 180.75 0.806641 177.565 0.806641ZM177.566 2.69336C179.694 2.69336 181.426 4.38625 181.426 6.46758V27.1444C181.426 29.2257 179.694 30.9186 177.566 30.9186H5.79064C3.66201 30.9186 1.93064 29.2257 1.93064 27.1444V6.46758C1.93064 4.38625 3.66201 2.69336 5.79064 2.69336H177.566V2.69336Z" fill="black"/>
<path fill-rule="evenodd" clip-rule="evenodd" d="M156.021 26.5081H159.982V21.5312H156.021V26.5081Z" fill="#FF6600"/>
<path fill-rule="evenodd" clip-rule="evenodd" d="M28.0756 18.2162C27.5058 18.6268 26.8159 18.8908 26.3054 19.0084C24.6258 19.3604 23.9655 20.1521 23.9655 21.5604C23.9655 22.7631 24.4156 23.7603 25.5254 23.7603C26.6358 23.7603 28.0756 23.0567 28.0756 21.3258V18.2162ZM20.5143 15.1641V14.7825C20.5143 11.1453 23.0645 9.91309 26.1844 9.91309C31.1052 9.91309 32.0351 11.908 32.0351 14.7535V23.0557C32.0351 24.5225 32.1256 25.1971 32.545 26.1062H28.5853C28.3152 25.6077 28.195 24.9915 28.0748 24.464H28.015C27.055 26.1062 25.8847 26.5168 23.9043 26.5168C21.0243 26.5168 20.0044 24.1119 20.0044 21.9995C20.0044 19.0364 21.2345 17.8336 24.0844 17.071L26.4248 16.4549C27.6549 16.1323 28.0748 15.6632 28.0748 14.607C28.0748 13.4043 27.5352 12.6706 26.1548 12.6706C24.8945 12.6706 24.2347 13.4923 24.2347 14.724V15.1641H20.5143V15.1641Z" fill="black"/>
<path fill-rule="evenodd" clip-rule="evenodd" d="M43.4634 24.259H43.403C42.533 25.8138 41.0329 26.5174 39.2929 26.5174C36.7126 26.5174 35.1823 25.1391 35.1823 22.0295V10.3242H39.3226V21.2079C39.3226 22.7922 39.8627 23.4083 41.0933 23.4083C42.5034 23.4083 43.2834 22.5571 43.2834 20.7973V10.3242H47.4237V26.1068H43.4634V24.259" fill="black"/>
<path fill-rule="evenodd" clip-rule="evenodd" d="M51.2935 5.80664H55.4338V10.324H57.8341V13.0815H55.4338V21.6182C55.4338 22.8505 55.7038 23.3496 56.9037 23.3496C57.2341 23.3496 57.564 23.3201 57.8341 23.2906V26.1066C56.9339 26.1951 56.0941 26.2826 55.1341 26.2826C51.8934 26.2826 51.2935 25.315 51.2935 22.1173V13.0815H49.1934V10.324H51.2935V5.80664" fill="black"/>
<path fill-rule="evenodd" clip-rule="evenodd" d="M65.3031 23.7609C66.9833 23.7609 67.5234 22.1476 67.5234 18.2169C67.5234 14.2856 66.9833 12.6723 65.3031 12.6723C63.2629 12.6723 63.0829 14.9897 63.0829 18.2169C63.0829 21.4435 63.2629 23.7609 65.3031 23.7609ZM65.3029 9.91405C70.2835 9.82603 71.6635 12.7301 71.6635 18.2162C71.6635 23.6137 70.0437 26.5178 65.3029 26.5178C60.3222 26.6058 58.9423 23.7017 58.9423 18.2162C58.9423 12.8181 60.5626 9.91405 65.3029 9.91405V9.91405Z" fill="black"/>
<path fill-rule="evenodd" clip-rule="evenodd" d="M74.0923 10.3246H78.0525V11.9385H78.1124C79.1624 10.5007 80.4529 9.91406 82.1928 9.91406C84.0827 9.91406 85.4631 10.8238 85.9132 12.4371H85.9731C86.6032 10.7647 88.1033 9.91406 90.0535 9.91406C92.7837 9.91406 94.0736 11.5864 94.0736 14.6375V26.1072H89.9333V15.0771C89.9333 13.7568 89.4832 13.0237 88.3135 13.0237C86.9935 13.0237 86.1531 13.9039 86.1531 15.7227V26.1072H82.0128V15.0771C82.0128 13.7568 81.5627 13.0237 80.3925 13.0237C79.0724 13.0237 78.2326 13.9039 78.2326 15.7227V26.1072H74.0923V10.3246" fill="black"/>
<path fill-rule="evenodd" clip-rule="evenodd" d="M102.862 23.7609C104.543 23.7609 105.083 22.1476 105.083 18.2169C105.083 14.2856 104.543 12.6723 102.862 12.6723C100.823 12.6723 100.643 14.9897 100.643 18.2169C100.643 21.4435 100.823 23.7609 102.862 23.7609ZM102.862 9.91405C107.843 9.82603 109.223 12.7301 109.223 18.2162C109.223 23.6137 107.602 26.5178 102.862 26.5178C97.8819 26.6058 96.502 23.7017 96.502 18.2162C96.502 12.8181 98.1218 9.91405 102.862 9.91405V9.91405Z" fill="black"/>
<path fill-rule="evenodd" clip-rule="evenodd" d="M117.983 23.4118C119.783 23.4118 120.143 21.6514 120.143 18.2193C120.143 14.7866 119.783 13.0268 117.983 13.0268C116.153 13.0268 115.793 14.7866 115.793 18.2193C115.793 21.6514 116.153 23.4118 117.983 23.4118ZM111.652 5.16504H115.792V11.7948H115.853C116.722 10.5336 117.773 9.91747 119.333 9.91747C122.723 9.91747 124.283 12.3525 124.283 18.2196C124.283 24.0868 122.723 26.5212 119.333 26.5212C117.713 26.5212 116.572 25.9056 115.673 24.4388H115.613V26.1106H111.652V5.16504V5.16504Z" fill="black"/>
<path fill-rule="evenodd" clip-rule="evenodd" d="M127.011 26.1062H131.152V10.3236H127.011V26.1062ZM127.011 8.38844H131.152V4.92676H127.011V8.38844Z" fill="black"/>
<path fill-rule="evenodd" clip-rule="evenodd" d="M134.421 26.1087H138.561V5.16309H134.421V26.1087Z" fill="black"/>
<path fill-rule="evenodd" clip-rule="evenodd" d="M149.451 16.4269C149.361 14.0209 149.061 12.6717 147.351 12.6717C145.701 12.6717 145.221 14.344 145.221 15.8108V16.4269H149.451ZM145.22 18.8313V20.0926C145.22 21.941 145.731 23.7593 147.261 23.7593C148.641 23.7593 149.211 22.7326 149.451 20.7967H153.171C153.021 24.464 151.221 26.5168 147.321 26.5168C141.32 26.5168 141.08 21.9995 141.08 18.0687C141.08 13.8438 141.92 9.91309 147.501 9.91309C152.331 9.91309 153.412 13.0812 153.412 17.9216V18.8313H145.22V18.8313Z" fill="black"/>
<path fill-rule="evenodd" clip-rule="evenodd" d="M163.34 26.1062H167.481V10.3236H163.34V26.1062ZM163.34 8.38844H167.481V4.92676H163.34V8.38844Z" fill="black"/>
<path fill-rule="evenodd" clip-rule="evenodd" d="M171.5 5.80664H175.64V10.324H178.041V13.0815H175.64V21.6182C175.64 22.8505 175.911 23.3496 177.11 23.3496C177.44 23.3496 177.77 23.3201 178.041 23.2906V26.1066C177.14 26.1951 176.301 26.2826 175.34 26.2826C172.1 26.2826 171.5 25.315 171.5 22.1173V13.0815H169.4V10.324H171.5V5.80664" fill="black"/>
</svg>
