<svg width="199" height="40" viewBox="0 0 199 40" fill="none" xmlns="http://www.w3.org/2000/svg">
<path d="M2.27287 25.8267C2.89496 26.698 3.76349 27.3966 4.78498 27.8475C5.78026 28.295 6.87291 28.5289 7.98065 28.5315C9.08235 28.5467 10.1758 28.3541 11.1934 27.9654C12.1212 27.6003 12.9585 27.0653 13.6543 26.3929C14.3441 25.7095 14.8812 24.908 15.235 24.034C15.9866 22.1752 15.9866 20.1295 15.235 18.2707C14.8822 17.3962 14.345 16.5946 13.6543 15.9118C12.9585 15.2394 12.1212 14.7044 11.1934 14.3393C10.1758 13.9506 9.08235 13.758 7.98065 13.7732C6.87118 13.7777 5.77773 14.0171 4.78498 14.473C3.7374 14.9724 2.86604 15.736 2.27287 16.6745H2.20449V5.71387H0V28.1698H2.19597V25.811L2.27287 25.8267ZM13.0818 23.405C12.8444 24.0621 12.4668 24.669 11.971 25.1899C11.4723 25.6995 10.8604 26.1044 10.1766 26.3771C9.41191 26.6741 8.5884 26.8214 7.75848 26.8096C6.95966 26.8144 6.16837 26.6672 5.43435 26.3771C4.73724 26.1008 4.10784 25.6979 3.58373 25.1926C3.05962 24.6874 2.65157 24.0901 2.38395 23.4365C1.80107 22.0096 1.80107 20.4366 2.38395 19.0098C2.65747 18.3474 3.0697 17.741 3.59727 17.2249C4.11667 16.7195 4.74148 16.3157 5.43435 16.0376C6.18502 15.7472 6.99117 15.5976 7.8055 15.5976C8.61982 15.5976 9.42594 15.7472 10.1766 16.0376C10.8596 16.3188 11.4709 16.7286 11.971 17.2406C12.4668 17.7616 12.8444 18.3684 13.0818 19.0255C13.6059 20.4401 13.6059 21.9747 13.0818 23.3893V23.405ZM34.392 19.1827V5.71387H32.196V28.1698H34.392V19.1827ZM64.9389 28.1698C64.899 27.6981 64.8649 27.1739 64.8364 26.5973C64.8364 26.0076 64.8364 25.5201 64.8364 25.1427V14.2685H62.6404V21.3922C62.6599 22.2141 62.527 23.0331 62.2474 23.8139C62.0308 24.4344 61.6822 25.009 61.222 25.5044C60.8293 25.9229 60.3424 26.2578 59.795 26.4859C59.2476 26.714 58.6529 26.8298 58.052 26.8253C57.3707 26.8462 56.693 26.7252 56.0696 26.4715C55.561 26.2523 55.1267 25.9098 54.8136 25.4808C54.4829 25.0155 54.2563 24.4943 54.1471 23.9476C54.0115 23.2919 53.9457 22.6257 53.9506 21.9583V14.2685H51.7631V22.7996C51.6869 24.2993 52.1961 25.7746 53.1987 26.959C53.7372 27.4989 54.4008 27.9206 55.1403 28.1928C55.8798 28.465 56.6763 28.5807 57.471 28.5315C58.5514 28.5258 59.6104 28.2544 60.5385 27.7453C61.443 27.302 62.1771 26.6129 62.6404 25.7717H62.7002C62.7002 26.0705 62.7002 26.4479 62.7002 26.9039C62.7002 27.36 62.7515 27.7767 62.7942 28.1463L64.9389 28.1698ZM95.5286 18.1291C95.2313 17.3264 94.7637 16.5861 94.1529 15.9512C93.5281 15.31 92.7581 14.8027 91.8971 14.4651C90.9052 14.0818 89.8369 13.8943 88.7613 13.9147C87.7309 13.9049 86.7096 14.0923 85.7621 14.4651C84.8497 14.8178 84.0243 15.3367 83.3354 15.9905C82.6362 16.6731 82.0877 17.4742 81.7205 18.3493C81.3274 19.2761 81.1301 20.2636 81.1395 21.2585C81.1315 22.2573 81.3346 23.2481 81.7376 24.1756C82.1159 25.0351 82.6699 25.8198 83.3696 26.4872C84.0714 27.1469 84.9115 27.6685 85.839 28.0205C86.8293 28.3905 87.889 28.5775 88.9578 28.5708C90.1655 28.578 91.3606 28.3446 92.4611 27.8868C93.635 27.3621 94.657 26.5887 95.4431 25.6302L93.794 24.4429C93.3069 25.1228 92.662 25.6948 91.9057 26.1177C91.1377 26.5354 90.2746 26.7827 89.3847 26.8401C88.4948 26.8974 87.6026 26.7631 86.7789 26.4479C86.1386 26.191 85.5583 25.8225 85.07 25.3628C84.5739 24.9142 84.1789 24.3798 83.9079 23.7903C83.6221 23.1676 83.4684 22.5004 83.4551 21.8246H95.9814C95.9814 21.6516 95.9814 21.4787 95.9814 21.3214V20.8732C96.0076 19.9429 95.8632 19.0152 95.5542 18.1291H95.5286ZM83.4636 20.1499C83.5063 19.5577 83.6716 18.9786 83.9506 18.4436C84.518 17.3365 85.5056 16.4584 86.7276 15.9747C87.3711 15.7254 88.0631 15.5997 88.7613 15.6052C89.4326 15.5663 90.1051 15.6622 90.7321 15.8862C91.3592 16.1102 91.9258 16.457 92.3927 16.9025C93.2603 17.7978 93.7486 18.9505 93.7684 20.1499H83.4636ZM114.651 25.8267C115.288 26.7038 116.175 27.4028 117.215 27.8475C118.21 28.2958 119.303 28.5297 120.41 28.5315C121.512 28.5458 122.605 28.3532 123.623 27.9654C124.55 27.6022 125.384 27.0668 126.075 26.3929C126.765 25.7095 127.302 24.908 127.656 24.034C128.408 22.1752 128.408 20.1295 127.656 18.2707C127.303 17.3962 126.766 16.5946 126.075 15.9118C125.384 15.2379 124.55 14.7025 123.623 14.3393C122.605 13.9515 121.512 13.7589 120.41 13.7732C119.301 13.7768 118.207 14.0163 117.215 14.473C116.169 14.9274 115.281 15.6407 114.651 16.533H114.592V5.71387H112.396V28.1698H114.592V25.811L114.651 25.8267ZM125.469 23.405C125.228 24.0626 124.848 24.6694 124.349 25.1899C123.855 25.7 123.245 26.1051 122.564 26.3771C121.796 26.6732 120.97 26.8204 120.137 26.8096C119.338 26.8144 118.547 26.6672 117.813 26.3771C117.123 26.1018 116.498 25.7037 115.976 25.2056C115.449 24.6947 115.037 24.0936 114.762 23.4365C114.18 22.0096 114.18 20.4366 114.762 19.0098C115.038 18.3485 115.45 17.7425 115.976 17.2249C116.495 16.7195 117.12 16.3157 117.813 16.0376C118.565 15.747 119.373 15.5973 120.188 15.5973C121.004 15.5973 121.812 15.747 122.564 16.0376C123.245 16.3168 123.854 16.727 124.349 17.2406C124.848 17.7611 125.228 18.3679 125.469 19.0255C125.982 20.4418 125.982 21.973 125.469 23.3893V23.405ZM157.802 18.1291C157.501 17.3278 157.034 16.588 156.426 15.9512C155.8 15.3081 155.026 14.8006 154.162 14.4651C153.173 14.0804 152.107 13.8928 151.034 13.9147C150.004 13.9049 148.983 14.0923 148.035 14.4651C147.123 14.8178 146.297 15.3367 145.608 15.9905C144.909 16.6731 144.361 17.4742 143.993 18.3493C143.6 19.2761 143.403 20.2636 143.412 21.2585C143.404 22.2573 143.608 23.2481 144.011 24.1756C144.389 25.0351 144.943 25.8198 145.643 26.4872C146.344 27.1469 147.185 27.6685 148.112 28.0205C149.102 28.3905 150.162 28.5775 151.231 28.5708C152.438 28.578 153.634 28.3446 154.734 27.8868C155.908 27.3621 156.93 26.5887 157.716 25.6302L156.067 24.4429C155.58 25.1228 154.935 25.6948 154.179 26.1177C153.411 26.5354 152.548 26.7827 151.658 26.8401C150.768 26.8974 149.876 26.7631 149.052 26.4479C148.398 26.1928 147.803 25.8244 147.3 25.3628C146.81 24.9117 146.418 24.3778 146.147 23.7903C145.861 23.1676 145.707 22.5004 145.694 21.8246H158.22C158.22 21.6516 158.22 21.4787 158.22 21.3214V20.8732C158.258 19.9447 158.125 19.0171 157.827 18.1291H157.802ZM145.737 20.1499C145.779 19.5577 145.945 18.9786 146.224 18.4436C146.791 17.3365 147.779 16.4584 149.001 15.9747C149.644 15.7254 150.336 15.5997 151.034 15.6052C151.704 15.5674 152.375 15.6639 153.001 15.8879C153.626 16.1118 154.191 16.458 154.657 16.9025C155.521 17.7996 156.009 18.9512 156.033 20.1499H145.737ZM176.873 21.29V5.71387H174.686V28.1698H176.873V21.29ZM196.637 21.7617V5.71387H194.441V28.1698H196.637V21.7617Z" fill="#6898AD"/>
</svg>
