<svg width="66" height="24" viewBox="0 0 66 24" fill="none" xmlns="http://www.w3.org/2000/svg">
<path d="M8.31279 10.4896C8.64764 10.2078 8.91352 9.85304 9.09005 9.45256C9.26658 9.05208 9.34907 8.61651 9.33119 8.17921C9.3444 7.60022 9.1773 7.03144 8.85302 6.55159C8.55827 6.13025 8.16324 5.78895 7.70358 5.55848C8.09419 5.33101 8.41522 5.00112 8.63198 4.60446C8.84875 4.20781 8.953 3.75946 8.93349 3.30786C8.93863 2.89264 8.84822 2.48179 8.66923 2.10708C8.49025 1.73238 8.2275 1.40386 7.90128 1.14691C7.23231 0.602071 6.34264 0.326202 5.25756 0.326202H0V11.354H5.55642C6.71046 11.354 7.64381 11.0574 8.31279 10.4896ZM6.63 7.06425C6.75924 7.17933 6.86178 7.32124 6.93048 7.48007C6.99917 7.6389 7.03236 7.81082 7.02771 7.98381C7.03368 8.16001 7.00119 8.3354 6.93251 8.49777C6.86383 8.66015 6.7606 8.80561 6.63 8.92405C6.3307 9.18335 5.9427 9.3168 5.54722 9.29647H2.2736V6.69873H5.54722C5.94199 6.67479 6.33051 6.80594 6.63 7.06425ZM6.26447 4.45731C6.13287 4.58024 5.97806 4.67568 5.80911 4.73805C5.64016 4.80042 5.46047 4.82846 5.28055 4.82053H2.2736V2.35612H5.24147H5.27365C5.63141 2.34072 5.98185 2.46055 6.25528 2.69176C6.37935 2.80012 6.47775 2.93472 6.54335 3.08582C6.60896 3.23691 6.64013 3.40071 6.6346 3.56534C6.63978 3.73177 6.60946 3.8974 6.54564 4.0512C6.48182 4.205 6.38597 4.34344 6.26447 4.45731Z" fill="#0F0F29"/>
<path d="M27.812 7.3724C27.7841 6.80219 27.9601 6.24067 28.3086 5.78847C28.4632 5.59869 28.6597 5.44739 28.8827 5.34646C29.1057 5.24553 29.3491 5.19775 29.5937 5.20685C29.8118 5.18891 30.031 5.22313 30.2333 5.30667C30.4355 5.39022 30.615 5.52069 30.7569 5.68732C31.0434 6.08376 31.1847 6.56679 31.1569 7.05515V11.3357H33.4075V6.67124C33.4075 5.57927 33.1316 4.70569 32.5914 4.0712C32.0512 3.4367 31.242 3.10106 30.2212 3.10106C29.7694 3.08764 29.3201 3.17235 28.9041 3.34936C28.4882 3.52637 28.1156 3.79146 27.812 4.12637V3.31945H25.5752V11.3357H27.8166L27.812 7.3724Z" fill="#0F0F29"/>
<path d="M45.6725 2.49415C45.8391 2.4954 46.0042 2.4633 46.1582 2.39973C46.3122 2.33617 46.4519 2.24243 46.5691 2.12403C46.6897 2.00939 46.7851 1.87086 46.8493 1.71729C46.9134 1.56371 46.9448 1.39845 46.9415 1.23206C46.9436 1.06788 46.9116 0.905052 46.8474 0.753888C46.7833 0.602725 46.6886 0.466516 46.5691 0.353884C46.3259 0.126496 46.0054 0 45.6725 0C45.3396 0 45.0191 0.126496 44.7759 0.353884C44.6556 0.467304 44.5603 0.604631 44.4962 0.757052C44.432 0.909473 44.4005 1.07362 44.4035 1.23896C44.4023 1.40563 44.4343 1.57087 44.4977 1.725C44.5612 1.87914 44.6547 2.01906 44.7729 2.1366C44.891 2.25413 45.0315 2.3469 45.186 2.40948C45.3404 2.47206 45.5059 2.50319 45.6725 2.50105V2.49415Z" fill="#0F0F29"/>
<path d="M46.8005 3.31936H44.543V11.3379H46.8005V3.31936Z" fill="#0F0F29"/>
<path d="M53.3759 5.68731C53.6624 6.08376 53.8037 6.56678 53.7759 7.05515V11.3357H56.0265V6.67123C56.0265 5.58156 55.7506 4.70568 55.2104 4.07119C54.6701 3.4367 53.8609 3.10106 52.8379 3.10106C52.3864 3.08767 51.9374 3.1724 51.5219 3.34941C51.1063 3.52643 50.7341 3.79151 50.431 4.12636V3.31945H48.1758V11.3357H50.431V7.37239C50.403 6.80219 50.5791 6.24067 50.9276 5.78846C51.082 5.59855 51.2785 5.44715 51.5016 5.34621C51.7246 5.24527 51.968 5.19756 52.2126 5.20684C52.4307 5.18891 52.65 5.22312 52.8522 5.30667C53.0545 5.39021 53.234 5.52069 53.3759 5.68731Z" fill="#0F0F29"/>
<path d="M12.7017 7.85972V7.25052C12.6817 6.97527 12.7208 6.69891 12.8163 6.44C12.9119 6.18109 13.0617 5.94561 13.2557 5.74935C13.4524 5.54925 13.6877 5.39124 13.9473 5.28493C14.207 5.17862 14.4856 5.12623 14.7661 5.13094C14.8901 5.13235 15.0138 5.14311 15.1362 5.16313L15.2535 5.18152V3.11252H15.1132C14.6652 3.09194 14.218 3.16792 13.8019 3.3353C13.3859 3.50268 13.0106 3.75756 12.7017 4.08265V3.31942H10.4258V11.3357H12.7017V7.85972Z" fill="#0F0F29"/>
<path d="M19.5056 11.5609C19.9678 11.5788 20.4284 11.4969 20.856 11.3208C21.2837 11.1446 21.6683 10.8784 21.9838 10.5402V11.3333H24.2114V3.31936H21.9746V4.13547C21.6585 3.79793 21.2738 3.53199 20.8463 3.35554C20.4189 3.17908 19.9586 3.09619 19.4964 3.11246C18.9482 3.09936 18.4034 3.20121 17.897 3.41146C17.3906 3.6217 16.9338 3.93568 16.5561 4.33317C15.809 5.1628 15.3955 6.23973 15.3955 7.35621C15.3955 8.47269 15.809 9.54963 16.5561 10.3793C16.9405 10.7679 17.4007 11.0734 17.908 11.2766C18.4154 11.4799 18.9592 11.5767 19.5056 11.5609ZM18.1975 5.81366C18.4081 5.61409 18.6566 5.45877 18.9283 5.3569C19.1999 5.25502 19.4893 5.20866 19.7792 5.22055C20.0643 5.21087 20.3485 5.25836 20.615 5.36022C20.8815 5.46209 21.1249 5.61626 21.3309 5.81366C21.5324 6.01452 21.6903 6.25476 21.7947 6.51938C21.8991 6.784 21.9478 7.06731 21.9378 7.35162C21.9484 7.63461 21.8999 7.9167 21.7954 8.17991C21.6909 8.44311 21.5327 8.68167 21.3309 8.88038C21.1254 9.07672 20.8826 9.22979 20.6168 9.33049C20.3511 9.4312 20.0678 9.47748 19.7838 9.4666C19.4937 9.4786 19.2042 9.43297 18.9319 9.33235C18.6597 9.23172 18.4101 9.0781 18.1975 8.88038C17.995 8.68212 17.8362 8.4437 17.7313 8.18042C17.6263 7.91715 17.5777 7.63483 17.5883 7.35162C17.5777 7.066 17.6263 6.78127 17.7311 6.51539C17.836 6.2495 17.9948 6.00822 18.1975 5.80676V5.81366Z" fill="#0F0F29"/>
<path d="M43.1732 11.3356V0.319351H40.9157V4.10103C40.598 3.77019 40.2141 3.5101 39.789 3.33778C39.364 3.16546 38.9073 3.08478 38.4489 3.10101C37.8989 3.08734 37.3522 3.18935 36.8441 3.40042C36.336 3.6115 35.8779 3.92694 35.4995 4.32631C34.7493 5.15763 34.334 6.23762 34.334 7.3574C34.334 8.47718 34.7493 9.55717 35.4995 10.3885C35.883 10.7792 36.3427 11.0869 36.8501 11.2925C37.3574 11.4982 37.9016 11.5974 38.4489 11.5839C38.9078 11.6004 39.3649 11.5194 39.7901 11.3462C40.2153 11.1731 40.5989 10.9117 40.9157 10.5793V11.3471L43.1732 11.3356ZM40.8743 7.34476C40.8847 7.62616 40.8363 7.90664 40.7322 8.16828C40.6281 8.42993 40.4705 8.66699 40.2697 8.86433C40.065 9.05974 39.8233 9.2121 39.5587 9.3124C39.2942 9.41269 39.0122 9.45889 38.7294 9.44824C38.441 9.45996 38.1531 9.41439 37.8824 9.31416C37.6117 9.21394 37.3636 9.06104 37.1524 8.86433C36.951 8.66733 36.7932 8.43033 36.6891 8.1686C36.5849 7.90687 36.5368 7.62623 36.5478 7.34476C36.5378 7.06203 36.5863 6.78029 36.6904 6.51721C36.7944 6.25414 36.9517 6.0154 37.1524 5.816C37.3618 5.61754 37.6088 5.46302 37.8788 5.36155C38.1489 5.26008 38.4365 5.21371 38.7248 5.22518C39.0084 5.2154 39.291 5.26265 39.556 5.36414C39.821 5.46563 40.0629 5.61928 40.2674 5.816C40.4693 6.01481 40.6279 6.25328 40.7331 6.51638C40.8383 6.77949 40.888 7.06153 40.8789 7.34476H40.8743Z" fill="#0F0F29"/>
<path d="M63.4819 3.31938V4.13089C63.167 3.79399 62.7834 3.52871 62.357 3.353C61.9306 3.1773 61.4714 3.09527 61.0106 3.11248C60.4635 3.09493 59.9187 3.19063 59.4104 3.39358C58.902 3.59652 58.4411 3.90232 58.0565 4.29181C57.3092 5.11909 56.8955 6.19427 56.8955 7.3091C56.8955 8.42394 57.3092 9.49911 58.0565 10.3264C58.433 10.7242 58.8889 11.0385 59.3946 11.2488C59.9004 11.4591 60.4447 11.5607 60.9922 11.5471C61.4536 11.563 61.9131 11.4799 62.3398 11.3035C62.7665 11.127 63.1504 10.8613 63.4658 10.5241V11.2574C63.4809 11.8007 63.2997 12.3312 62.9555 12.7517C62.7774 12.9462 62.5579 13.098 62.3131 13.1959C62.0684 13.2938 61.8047 13.3353 61.5416 13.3173C60.6083 13.3173 59.9209 12.9678 59.5025 12.3011L59.4749 12.2575H57.0887L57.1439 12.3839C57.9646 14.2805 59.4313 15.2414 61.5118 15.2414C62.7853 15.2414 63.829 14.869 64.6107 14.1334C65.0003 13.767 65.3073 13.3219 65.5115 12.8276C65.7156 12.3333 65.8121 11.8011 65.7946 11.2666V3.31938H63.4819ZM62.8313 8.86431C62.4003 9.24648 61.8442 9.45752 61.2681 9.45752C60.692 9.45752 60.1359 9.24648 59.7048 8.86431C59.5032 8.66391 59.3451 8.42413 59.2403 8.15992C59.1355 7.89571 59.0862 7.61273 59.0956 7.32864C59.0853 7.04601 59.1339 6.76433 59.2384 6.50152C59.3429 6.23871 59.5009 6.00054 59.7025 5.80218C59.915 5.60506 60.1643 5.4518 60.4361 5.3512C60.7079 5.25061 60.9969 5.20465 61.2865 5.21596C61.5701 5.20552 61.8529 5.25202 62.1182 5.3527C62.3836 5.45339 62.626 5.60623 62.8313 5.80218C63.033 6.00046 63.1912 6.23861 63.2957 6.50144C63.4002 6.76427 63.4487 7.046 63.4382 7.32864C63.4479 7.61256 63.399 7.89544 63.2946 8.15964C63.1902 8.42384 63.0325 8.66372 62.8313 8.86431Z" fill="#0F0F29"/>
<path d="M8.52888 18.3863C9.00948 17.6987 9.23256 16.8637 9.15899 16.028C9.08543 15.1923 8.71991 14.4092 8.12658 13.8161C7.76987 13.4491 7.33986 13.1614 6.86454 12.9717C6.38923 12.7819 5.87928 12.6945 5.36791 12.7149H0V23.7243H2.31039V19.9473H4.45065L6.88977 23.7197H9.58177L6.86678 19.676C7.53949 19.4259 8.11951 18.9758 8.52888 18.3863ZM6.91966 16.338C6.92594 16.5437 6.88816 16.7484 6.80887 16.9383C6.72957 17.1282 6.61058 17.299 6.45988 17.4392C6.29559 17.5913 6.10258 17.7091 5.89218 17.7857C5.68178 17.8622 5.45821 17.8961 5.23457 17.8851H2.31498V14.8207H5.30354C5.5153 14.8138 5.72627 14.8497 5.9238 14.9264C6.12132 15.003 6.30132 15.1188 6.45299 15.2667C6.60008 15.4035 6.71712 15.5693 6.79667 15.7538C6.87621 15.9382 6.91653 16.1371 6.91506 16.338H6.91966Z" fill="#0F0F29"/>
<path d="M31.637 15.492C31.07 15.4746 30.5054 15.5721 29.9772 15.7788C29.449 15.9854 28.968 16.2968 28.5634 16.6943C27.7822 17.5045 27.3457 18.5861 27.3457 19.7116C27.3457 20.8371 27.7822 21.9187 28.5634 22.7289C28.9651 23.1292 29.4442 23.4433 29.9715 23.6521C30.4988 23.8608 31.0632 23.9597 31.6301 23.9427H31.6439C32.2096 23.9591 32.7728 23.8599 33.2989 23.6512C33.825 23.4425 34.303 23.1287 34.7037 22.7289C35.4801 21.9162 35.9133 20.8355 35.9133 19.7116C35.9133 18.5877 35.4801 17.507 34.7037 16.6943C34.2998 16.2977 33.82 15.9867 33.293 15.7801C32.7661 15.5735 32.2028 15.4755 31.637 15.492ZM30.122 18.161C30.5266 17.77 31.0674 17.5514 31.6301 17.5514C32.1928 17.5514 32.7335 17.77 33.1381 18.161C33.5131 18.5933 33.7195 19.1463 33.7195 19.7185C33.7195 20.2907 33.5131 20.8437 33.1381 21.276C32.7335 21.667 32.1928 21.8856 31.6301 21.8856C31.0674 21.8856 30.5266 21.667 30.122 21.276C29.7457 20.8444 29.5384 20.2911 29.5384 19.7185C29.5384 19.1459 29.7457 18.5926 30.122 18.161Z" fill="#0F0F29"/>
<path d="M57.9572 19.7725C57.617 19.4921 57.0009 19.2208 56.1181 18.9679L54.1755 18.4116C53.7893 18.2944 53.6008 18.1242 53.6008 17.8921C53.6072 17.8054 53.636 17.722 53.6843 17.6498C53.7327 17.5777 53.799 17.5194 53.8767 17.4806C54.097 17.3438 54.3531 17.2758 54.6123 17.2851C55.3526 17.2851 55.8675 17.5679 56.1894 18.1449L56.2169 18.1978H58.3595L58.3388 18.076C58.1503 16.961 57.3158 16.3242 56.8353 16.0437C56.1601 15.6623 55.3945 15.4701 54.6192 15.4874C53.8027 15.4645 53.0016 15.7127 52.341 16.1932C51.7042 16.6736 51.3801 17.2599 51.3801 17.9334C51.3801 19.0001 52.056 19.7335 53.387 20.1151L55.5388 20.7036C56.0629 20.8599 56.3296 21.0852 56.3296 21.3726C56.3249 21.4741 56.2932 21.5726 56.2379 21.6578C56.1825 21.7431 56.1055 21.812 56.0146 21.8576C55.7386 22.0125 55.4252 22.0881 55.1089 22.076H55.079C54.7123 22.071 54.3566 21.95 54.0629 21.7302C53.7693 21.5105 53.5528 21.2034 53.4445 20.853L53.4238 20.7795H51.21L51.2307 20.899C51.3893 21.9151 51.8605 22.7381 52.5525 23.1979C53.2918 23.6927 54.1642 23.9509 55.0537 23.9381H55.0767C55.9663 23.9733 56.8423 23.7113 57.5664 23.1933C57.8738 22.9782 58.1245 22.6919 58.297 22.3588C58.4696 22.0257 58.5589 21.6558 58.5572 21.2806C58.5664 20.6139 58.3618 20.1059 57.9572 19.7725Z" fill="#0F0F29"/>
<path d="M41.4379 15.492C40.9899 15.4739 40.5431 15.5521 40.1279 15.7215C39.7126 15.8908 39.3386 16.1473 39.031 16.4736V15.7104H36.7666V23.7266H39.031V20.2484V19.6392C39.011 19.364 39.0501 19.0876 39.1456 18.8287C39.2412 18.5698 39.391 18.3343 39.585 18.138C39.7817 17.9379 40.017 17.7799 40.2767 17.6736C40.5363 17.5673 40.8149 17.5149 41.0954 17.5196C41.2194 17.5211 41.3431 17.5319 41.4655 17.5518L41.5828 17.5702V15.5012L41.4379 15.492Z" fill="#0F0F29"/>
<path d="M21.2487 18.1472C21.4291 17.9408 21.6529 17.7769 21.9041 17.6672C22.1553 17.5575 22.4277 17.5048 22.7016 17.5127C23.1278 17.4989 23.5466 17.6266 23.8925 17.876C24.1783 18.0972 24.39 18.4004 24.4994 18.7449L24.5224 18.8185H26.6672L26.6557 18.7036C26.5203 17.7577 26.0265 16.9001 25.2764 16.3081C24.4359 15.7185 23.4182 15.4358 22.394 15.5074C21.3698 15.579 20.4014 16.0005 19.651 16.7012C19.2565 17.0956 18.9464 17.5663 18.7397 18.0844C18.533 18.6026 18.434 19.1574 18.4487 19.7151V19.745C18.4357 20.3039 18.5365 20.8596 18.7449 21.3783C18.9533 21.897 19.265 22.368 19.6611 22.7625C20.0571 23.1571 20.5293 23.467 21.0488 23.6734C21.5683 23.8799 22.1244 23.9785 22.6833 23.9634C23.6157 23.9919 24.5306 23.7061 25.281 23.1519C26.026 22.5536 26.5184 21.6968 26.6603 20.7519L26.6718 20.6392H24.5316L24.5086 20.7128C24.4007 21.06 24.1869 21.3647 23.8971 21.5841C23.5506 21.8324 23.1323 21.96 22.7062 21.9473C22.4323 21.9553 22.1599 21.9025 21.9087 21.7929C21.6575 21.6832 21.4337 21.5192 21.2533 21.3128C20.8766 20.8815 20.6756 20.3244 20.6901 19.7519V19.7082C20.6739 19.1362 20.8733 18.579 21.2487 18.1472Z" fill="#0F0F29"/>
<path d="M48.176 12.715V16.5311C47.8589 16.199 47.4753 15.9377 47.0502 15.7641C46.6251 15.5906 46.1681 15.5088 45.7092 15.5242C45.1589 15.5108 44.6119 15.6129 44.1035 15.8239C43.595 16.035 43.1365 16.3503 42.7575 16.7495C42.0077 17.581 41.5928 18.661 41.5928 19.7806C41.5928 20.9002 42.0077 21.9801 42.7575 22.8117C43.1437 23.2026 43.6064 23.5097 44.1166 23.7138C44.6269 23.9179 45.1737 24.0146 45.723 23.9979C46.1819 24.0144 46.639 23.9334 47.0642 23.7602C47.4894 23.5871 47.873 23.3257 48.1897 22.9933V23.7243H50.4404V12.715H48.176ZM45.9943 21.8645C45.7059 21.8762 45.418 21.8307 45.1473 21.7304C44.8766 21.6302 44.6285 21.4773 44.4173 21.2806C44.2159 21.0836 44.0581 20.8466 43.954 20.5849C43.8498 20.3232 43.8017 20.0425 43.8127 19.761C43.8027 19.4783 43.8512 19.1966 43.9552 18.9335C44.0593 18.6704 44.2166 18.4317 44.4173 18.2323C44.6264 18.0334 44.8733 17.8786 45.1435 17.7771C45.4136 17.6756 45.7014 17.6295 45.9897 17.6415C46.2733 17.6312 46.5561 17.6782 46.8212 17.7797C47.0862 17.8812 47.3281 18.0351 47.5323 18.2323C47.7334 18.4315 47.8911 18.6701 47.9955 18.9332C48.1 19.1963 48.1489 19.4782 48.1392 19.761C48.1496 20.0424 48.1012 20.3229 47.9971 20.5846C47.893 20.8462 47.7354 21.0833 47.5346 21.2806C47.3299 21.476 47.0882 21.6284 46.8236 21.7287C46.559 21.829 46.277 21.8752 45.9943 21.8645Z" fill="#0F0F29"/>
<path d="M15.2441 21.2554C15.1721 21.3621 15.088 21.46 14.9935 21.5474C14.5826 21.8682 14.0705 22.0313 13.5498 22.0071C13.0577 22.0213 12.5786 21.8479 12.2095 21.5221C11.8843 21.2408 11.6679 20.8544 11.598 20.4301H17.6809V20.3358C17.6986 20.1671 17.7078 19.9975 17.7085 19.8278V19.5979C17.7413 18.5081 17.3403 17.4497 16.5935 16.6553C15.8556 15.8783 14.8372 15.4829 13.5636 15.4829C12.5575 15.4427 11.5732 15.7827 10.8064 16.4353C10.0396 17.0879 9.54666 18.0052 9.42558 19.0048L9.40029 19.1979V19.2163C9.40029 19.2577 9.40029 19.2967 9.38879 19.3358C9.38879 19.4324 9.375 19.5657 9.375 19.7197C9.375 19.8278 9.375 19.9496 9.38879 20.0853C9.38879 20.1266 9.38879 20.1657 9.40259 20.214L9.42558 20.414C9.53885 21.2788 9.9264 22.0846 10.5313 22.7129C10.9243 23.1142 11.3969 23.4289 11.9187 23.6368C12.4405 23.8446 13 23.941 13.5613 23.9198C14.8349 23.9198 15.8602 23.5267 16.5912 22.7497C17.0034 22.317 17.3109 21.7956 17.4901 21.2255L15.2441 21.2554ZM12.2095 17.9174C12.5899 17.6049 13.0662 17.4327 13.5584 17.4298C14.0507 17.4269 14.529 17.5934 14.913 17.9013C15.1763 18.1358 15.3642 18.443 15.4533 18.7841H11.6555C11.7564 18.4495 11.9482 18.1494 12.2095 17.9174Z" fill="#0F0F29"/>
</svg>
