<svg width="93" height="32" viewBox="0 0 93 32" fill="none" xmlns="http://www.w3.org/2000/svg">
<mask id="mask0_204_7186" style="mask-type:alpha" maskUnits="userSpaceOnUse" x="0" y="0" width="13" height="32">
<path fill-rule="evenodd" clip-rule="evenodd" d="M0 0H12.3498V31.5885H0V0Z" fill="white"/>
</mask>
<g mask="url(#mask0_204_7186)">
<path fill-rule="evenodd" clip-rule="evenodd" d="M12.3498 1.65248L10.3433 5.36128C9.28124 4.66816 8.29207 4.45696 7.13206 4.83072C5.75708 5.2736 4.97458 6.76224 4.98097 8.11712V10.8352H10.0445V15.0349H4.98097V31.5885H-6.10352e-05V8.36416C-6.10352e-05 3.6704 2.86443 0 7.5985 0C9.57492 0 11.1975 0.78784 12.3498 1.65248" fill="#FF2800"/>
</g>
<path fill-rule="evenodd" clip-rule="evenodd" d="M14.9054 21.2529C14.9054 24.9592 17.3341 27.6357 20.6689 27.6357C24.003 27.6357 26.4734 24.9592 26.4734 21.2529C26.4734 17.5057 24.003 14.7877 20.6689 14.7877C17.3341 14.7877 14.9054 17.5057 14.9054 21.2529M31.4544 21.2529C31.4544 27.4705 26.8848 31.9998 20.6689 31.9998C14.4524 31.9998 9.88275 27.4705 9.88275 21.2529C9.88275 14.9937 14.4524 10.4229 20.6689 10.4229C26.8848 10.4229 31.4544 14.9937 31.4544 21.2529" fill="#FF2800"/>
<path fill-rule="evenodd" clip-rule="evenodd" d="M76.6934 25.7822L74.6351 29.4885C76.4465 31.0526 79.4108 31.9998 82.5389 31.9998C87.8904 31.9998 91.2251 29.3649 91.2251 25.3701C91.2251 22.2411 89.0433 20.2641 84.4328 19.1525C81.3456 18.4113 80.3577 17.9998 80.3577 16.5995C80.3577 15.1582 81.5926 14.5406 83.6509 14.5406C85.8327 14.5406 87.479 15.3643 88.7145 16.3525L90.6896 12.6878C89.0843 11.3291 86.4911 10.4229 83.6509 10.4229C78.5464 10.4229 75.4176 12.8939 75.4176 16.9291C75.4176 20.1822 77.476 21.8289 82.21 22.9413C85.2146 23.6408 86.2031 24.2584 86.2031 25.6587C86.2031 27.1825 84.8032 27.8821 82.5805 27.8821C80.1926 27.8821 78.1753 27.0174 76.6934 25.7822" fill="#FF2800"/>
<path fill-rule="evenodd" clip-rule="evenodd" d="M52.1305 19.6278V31.5888H47.1494V19.9644C47.1494 17.5196 45.1685 15.5376 42.7238 15.5376C40.2803 15.5376 38.2987 17.5196 38.2987 19.9644V31.5888H33.3586V19.6278C33.3586 14.4534 37.5527 10.4502 42.7257 10.4502C47.8993 10.4502 52.1305 14.4534 52.1305 19.6278" fill="#FF2800"/>
<path fill-rule="evenodd" clip-rule="evenodd" d="M54.4645 22.8233V10.8623H59.4456V22.4866C59.4456 24.9314 61.4271 26.9135 63.8712 26.9135C66.3147 26.9135 68.2963 24.9314 68.2963 22.4866V10.8623H73.2364V22.8233C73.2364 27.9977 69.0423 32.0009 63.8693 32.0009C58.6957 32.0009 54.4645 27.9977 54.4645 22.8233" fill="#FF2800"/>
</svg>
