<svg width="131" height="40" viewBox="0 0 131 40" fill="none" xmlns="http://www.w3.org/2000/svg">
<path fill-rule="evenodd" clip-rule="evenodd" d="M89.5568 21.7943L92.5012 15.1836H92.6624C93.6509 17.3803 94.6192 19.5972 95.6069 21.7943H89.5568ZM93.045 12.503C92.9846 12.382 92.8838 12.2812 92.7024 12.2812H92.5007C92.3193 12.2812 92.2181 12.382 92.1577 12.503L86.0262 26.0674C85.9055 26.3293 86.0671 26.5911 86.3692 26.5911H87.1759C87.3577 26.5911 87.4788 26.4701 87.5189 26.3694L88.9917 23.044H96.1514L97.6441 26.3694C97.6842 26.4701 97.8049 26.5911 97.9863 26.5911H98.7934C99.0959 26.5911 99.2567 26.3293 99.136 26.0674L93.045 12.503Z" fill="#DEB407"/>
<path fill-rule="evenodd" clip-rule="evenodd" d="M55.1157 12.4824H47.1692C46.9476 12.4824 46.7861 12.6637 46.7861 12.8653V26.2079C46.7861 26.4091 46.9476 26.5908 47.1692 26.5908H47.956C48.1577 26.5908 48.3391 26.4091 48.3391 26.2079V20.7054H54.1272C54.3289 20.7054 54.5107 20.5241 54.5107 20.3229V19.7381C54.5107 19.5366 54.3289 19.3549 54.1272 19.3549H48.3391V13.8325H55.1157C55.338 13.8325 55.4988 13.6516 55.4988 13.4497V12.8653C55.4988 12.6637 55.338 12.4824 55.1157 12.4824Z" fill="#DEB407"/>
<path fill-rule="evenodd" clip-rule="evenodd" d="M69.7175 12.4824H68.9513C68.729 12.4824 68.5678 12.6637 68.5678 12.8653V21.31C68.5678 23.6078 67.116 25.3617 64.7361 25.3617C62.3764 25.3617 60.9441 23.5673 60.9441 21.2699V12.8653C60.9441 12.6637 60.7833 12.4824 60.561 12.4824H59.7948C59.5931 12.4824 59.4113 12.6637 59.4113 12.8653V21.3909C59.4113 24.4544 61.5693 26.7923 64.7361 26.7923C67.9227 26.7923 70.1006 24.4544 70.1006 21.3909V12.8653C70.1006 12.6637 69.9192 12.4824 69.7175 12.4824Z" fill="#DEB407"/>
<path fill-rule="evenodd" clip-rule="evenodd" d="M78.7144 18.6907C77.0205 17.9853 75.9919 17.1991 75.9919 15.8486C75.9919 15.0024 76.6374 13.6317 78.7752 13.6317C80.0054 13.6317 81.2758 14.4783 81.4171 14.5588C81.7399 14.7402 81.9419 14.6596 82.123 14.3775C82.2036 14.2565 82.2845 14.1157 82.3651 13.9947C82.6069 13.6115 82.3651 13.3695 82.2441 13.3095C82.2441 13.3095 80.772 12.2812 78.7954 12.2812C75.5889 12.2812 74.4992 14.4985 74.4992 15.8692C74.4992 18.1667 75.8307 19.0736 78.0491 20.0408C80.3683 21.0084 81.5787 21.8344 81.5787 23.2253C81.5787 24.4143 80.51 25.4422 78.876 25.4422C77.0812 25.4422 75.6091 24.0315 75.4678 23.9105C75.1852 23.6688 74.9633 23.8299 74.762 24.0925C74.6608 24.2131 74.5599 24.354 74.4591 24.475C74.2169 24.8578 74.419 25.0193 74.5802 25.1605C74.8426 25.4025 76.4556 26.793 78.8355 26.793C81.1952 26.793 83.1917 25.2613 83.1917 23.165C83.1917 20.8271 81.4374 19.7992 78.7144 18.6907Z" fill="#DEB407"/>
<path fill-rule="evenodd" clip-rule="evenodd" d="M113.728 12.4828H113.022C112.8 12.4828 112.639 12.6641 112.639 12.8656V23.6082C112.623 23.614 112.623 23.614 112.608 23.6192L103.627 12.435C103.548 12.3375 103.43 12.2812 103.306 12.2812H102.979C102.778 12.2812 102.616 12.4438 102.616 12.6439V26.2083C102.616 26.419 102.788 26.5911 102.999 26.5911H103.705C103.927 26.5911 104.088 26.4095 104.088 26.2083V15.2436H104.108L113.242 26.6386C113.32 26.736 113.438 26.7927 113.563 26.7927H113.748C113.949 26.7927 114.111 26.6305 114.111 26.43V12.8656C114.111 12.6553 113.939 12.4828 113.728 12.4828Z" fill="#DEB407"/>
<path fill-rule="evenodd" clip-rule="evenodd" d="M130.127 20.1416H126.638C126.416 20.1416 126.255 20.3027 126.255 20.5244V21.2703C126.255 21.4718 126.416 21.6332 126.638 21.6332H128.957V24.4551C128.957 24.4551 127.545 25.3014 125.327 25.3014C122.14 25.3014 119.72 22.5802 119.72 19.4763C119.72 16.3528 122.14 13.692 125.327 13.692C126.678 13.692 128.13 14.3573 129.159 15.2639C129.381 15.4658 129.502 15.4856 129.683 15.2844C129.844 15.1028 130.066 14.9012 130.248 14.7199C130.409 14.5585 130.389 14.3169 130.227 14.1558C128.856 12.9866 127.384 12.2812 125.347 12.2812C121.313 12.2812 118.066 15.5264 118.066 19.5572C118.066 23.5879 121.313 26.7927 125.347 26.7927C128.271 26.7927 130.328 25.4625 130.328 25.4625C130.409 25.4021 130.49 25.2407 130.49 25.1403V20.5244C130.49 20.3232 130.328 20.1416 130.127 20.1416Z" fill="#DEB407"/>
<path fill-rule="evenodd" clip-rule="evenodd" d="M23.0508 28.84C21.5993 27.4256 20.4563 26.2359 19.8262 25.5676C21.0289 24.5342 22.6791 22.941 24.4573 21.1562C28.3097 24.7615 31.8658 27.3664 34.0444 28.84H23.0508ZM18.7019 28.8403H18.6927H16.5185C17.4621 27.8929 18.2261 27.1096 18.6975 26.6064C19.1689 27.1096 19.9326 27.8929 20.8765 28.8403H18.7019ZM14.3452 28.84H3.35156C5.5302 27.3664 9.08631 24.7615 12.9383 21.1562C14.7165 22.941 16.3671 24.5342 17.569 25.5676C16.9397 26.2359 15.7967 27.4256 14.3452 28.84V28.84ZM4.2486 9.87012H14.7664C15.6526 11.0985 16.6676 12.4199 17.8275 13.8141C16.2267 15.7206 14.5824 17.4587 12.972 19.0261C9.64109 15.6382 6.05407 11.8105 4.2486 9.87012V9.87012ZM11.4449 1.51953H18.6929H18.7021H25.9501C25.3164 2.81812 24.0129 5.25165 21.8372 8.35157H18.7021H18.6929H15.5578C13.3825 5.25165 12.079 2.81812 11.4449 1.51953V1.51953ZM16.6562 9.87012H18.6939H18.7031H20.7411C20.1199 10.7038 19.4391 11.5766 18.6987 12.4787C17.9582 11.5766 17.2774 10.7038 16.6562 9.87012V9.87012ZM23.3569 20.1055C21.5356 21.9341 19.863 23.5467 18.6979 24.5327C17.5327 23.5467 15.8601 21.9341 14.0388 20.1055C15.5841 18.6014 17.1581 16.9438 18.6979 15.1348C20.2373 16.9438 21.8116 18.6014 23.3569 20.1055V20.1055ZM33.148 9.87012C31.3426 11.8105 27.7559 15.6382 24.4247 19.0261C22.8142 17.4587 21.1703 15.7206 19.5695 13.8141C20.7291 12.4199 21.744 11.0985 22.6302 9.87012H33.148ZM37.0168 28.9419C36.9454 28.9007 31.6246 25.7817 25.5255 20.0776C30.1136 15.4128 35.1248 9.97462 35.4472 9.62488C35.6496 9.40348 35.7044 9.08095 35.5837 8.80475C35.4612 8.52929 35.1877 8.35129 34.8874 8.35129H23.6936C26.6182 4.04472 27.7741 1.20591 27.8396 1.04189C27.9335 0.806885 27.9047 0.541723 27.7634 0.333934C27.621 0.123938 27.3855 0 27.1334 0H18.7026H18.6934H10.2629C10.0105 0 9.77531 0.123938 9.63289 0.333934C9.4912 0.541723 9.46287 0.806885 9.55671 1.04189C9.62222 1.20591 10.7778 4.04472 13.7027 8.35129H2.50889C2.20859 8.35129 1.93479 8.52929 1.81224 8.80475C1.6919 9.08095 1.746 9.40348 1.94877 9.62488C2.27115 9.97462 7.28239 15.4128 11.8708 20.0776C5.7717 25.7817 0.450593 28.9007 0.379566 28.9419C0.0803715 29.1148 -0.0635217 29.4653 0.0266415 29.797C0.116069 30.1272 0.416368 30.3586 0.760092 30.3586H12.7551C9.57842 33.3301 5.49385 36.7743 1.95061 38.5631C1.57561 38.7522 1.42472 39.2082 1.61572 39.583C1.74894 39.8477 2.01575 40 2.29471 40C2.40879 40 2.52656 39.9743 2.63622 39.9187C6.83525 37.8004 11.6224 33.5964 14.9764 30.3586H18.6934H18.7026H22.4199C25.7736 33.5964 30.5611 37.8004 34.7597 39.9187C34.8694 39.9743 34.9872 40 35.1016 40C35.3806 40 35.6474 39.8477 35.7806 39.583C35.9712 39.2082 35.8207 38.7522 35.4457 38.5631C31.9025 36.7743 27.8175 33.3301 24.6408 30.3586H36.6359C36.98 30.3586 37.2802 30.1272 37.3697 29.797C37.4595 29.4653 37.3159 29.1148 37.0168 28.9419V28.9419Z" fill="#DEB407"/>
</svg>
