<svg width="180" height="40" viewBox="0 0 180 40" fill="none" xmlns="http://www.w3.org/2000/svg">
<path fill-rule="evenodd" clip-rule="evenodd" d="M44.194 23.4106H47.7854V26.5424H40.6026V17.3284H49.6775C49.6775 17.076 49.6276 16.8371 49.5296 16.6126C49.4316 16.388 49.2959 16.1929 49.1236 16.0281C48.9512 15.8632 48.7502 15.7303 48.519 15.6323C48.2886 15.5328 48.0435 15.4834 47.7854 15.4834H40.6026C40.3445 15.4834 40.0994 15.5328 39.869 15.6323C39.6386 15.7303 39.4368 15.8632 39.2644 16.0281C39.0921 16.1929 38.9564 16.388 38.8584 16.6126C38.7596 16.8371 38.7097 17.076 38.7097 17.3284V26.5424C38.7097 26.7948 38.7596 27.0329 38.8584 27.2583C38.9564 27.4828 39.0921 27.6795 39.2644 27.8467C39.4368 28.0155 39.6386 28.1469 39.869 28.2433C40.0994 28.3388 40.3445 28.3866 40.6026 28.3866H47.7854C48.0435 28.3866 48.2886 28.3388 48.519 28.2433C48.7502 28.1469 48.9512 28.0155 49.1236 27.8467C49.2959 27.6795 49.4316 27.4828 49.5296 27.2583C49.6276 27.0329 49.6775 26.7948 49.6775 26.5424V21.5663H44.194V23.4106Z" fill="black"/>
<mask id="mask0_204_7078" style="mask-type:alpha" maskUnits="userSpaceOnUse" x="0" y="0" width="180" height="40">
<path fill-rule="evenodd" clip-rule="evenodd" d="M0 40H179.355V0H0V40Z" fill="white"/>
</mask>
<g mask="url(#mask0_204_7078)">
<path fill-rule="evenodd" clip-rule="evenodd" d="M54.8583 22.8636H60.1514V21.0186H54.8583V22.8636ZM61.2905 17.3286V15.4844H51.613V28.3876H61.2905V26.5434H53.5118V22.8629H53.5126V21.0179H53.5118V17.3286H61.2905Z" fill="black"/>
<path fill-rule="evenodd" clip-rule="evenodd" d="M62.5807 18.1377V28.3886H64.4527V20.5185L62.5807 18.1377ZM72.3225 15.4844V25.49L64.4527 15.4844H62.5807V16.0019L64.4527 18.3835L72.3225 28.3876H74.1937V15.4844H72.3225Z" fill="black"/>
<path fill-rule="evenodd" clip-rule="evenodd" d="M79.3809 22.8636H84.6667V21.0186H79.3809V22.8636ZM85.8066 17.3286V15.4844H76.1292V28.3876H85.8066V26.5434H78.0271V22.8629H78.0353V21.0179H78.0271V17.3286H85.8066Z" fill="black"/>
<path fill-rule="evenodd" clip-rule="evenodd" d="M96.8693 21.5572C96.6981 21.3892 96.4977 21.2578 96.2681 21.1615C96.0394 21.0659 95.796 21.0173 95.5388 21.0173H89.159V17.3283H97.4193C97.4193 17.0767 97.3698 16.8378 97.2725 16.6133C97.1743 16.3887 97.0396 16.1937 96.8693 16.028C96.6981 15.864 96.4977 15.731 96.2681 15.6331C96.0394 15.5336 95.796 15.4834 95.5388 15.4834H89.159C88.9026 15.4834 88.6592 15.5336 88.4305 15.6331C88.2009 15.731 88.0005 15.864 87.8301 16.028C87.6581 16.1937 87.5235 16.3887 87.4261 16.6133C87.3288 16.8378 87.2809 17.0767 87.2809 17.3283V21.0173C87.2809 21.2689 87.3288 21.5078 87.4261 21.7324C87.5235 21.9585 87.6581 22.1536 87.8301 22.3176C88.0005 22.4832 88.2009 22.6146 88.4305 22.7141C88.6592 22.8129 88.9026 22.8622 89.159 22.8622H95.5388V26.5425H95.5283V26.556H87.0967C87.0984 26.8029 87.147 27.0362 87.2428 27.2575C87.3409 27.4821 87.4756 27.6788 87.6468 27.8468C87.818 28.0156 88.0175 28.147 88.2463 28.2433C88.4759 28.3388 88.7185 28.3866 88.9756 28.3866H95.5388C95.796 28.3866 96.0394 28.3388 96.2681 28.2433C96.4977 28.147 96.6981 28.0156 96.8693 27.8468C97.0396 27.6788 97.1743 27.4821 97.2725 27.2575C97.3698 27.0322 97.4193 26.7941 97.4193 26.5425V22.8622C97.4193 22.6106 97.3698 22.3718 97.2725 22.1472C97.1743 21.9219 97.0396 21.726 96.8693 21.5572Z" fill="black"/>
<path fill-rule="evenodd" clip-rule="evenodd" d="M99.3549 28.3866H101.29V15.4834H99.3549V28.3866Z" fill="black"/>
<path fill-rule="evenodd" clip-rule="evenodd" d="M128.491 25.1669C128.491 25.6526 128.382 26.0094 128.163 26.2371C127.944 26.4656 127.589 26.5795 127.097 26.5795H121.83V22.7646H127.097C127.589 22.7646 127.944 22.8753 128.163 23.0975C128.382 23.3188 128.491 23.6764 128.491 24.1676V25.1669ZM121.83 17.293H126.724C127.215 17.293 127.571 17.4068 127.79 17.6346C128.009 17.8623 128.117 18.223 128.117 18.7143V19.5607C128.117 20.0281 128.019 20.3745 127.821 20.5998C127.624 20.8243 127.301 20.9462 126.851 20.9637H121.83V17.293ZM130.194 23.4747C130.11 23.1451 129.989 22.8584 129.831 22.6156C129.673 22.3727 129.482 22.1737 129.257 22.0176C129.032 21.8615 128.782 21.7413 128.509 21.6577C129.002 21.4355 129.364 21.0948 129.598 20.6361C129.832 20.1775 129.949 19.5851 129.949 18.8589V18.6248C129.949 16.5314 128.892 15.4844 126.778 15.4844H120V28.3876H127.151C129.266 28.3876 130.323 27.3437 130.323 25.2567V24.6094C130.323 24.1834 130.281 23.8044 130.194 23.4747V23.4747Z" fill="black"/>
<path fill-rule="evenodd" clip-rule="evenodd" d="M134.083 26.5425V15.4834H132.258V28.3866H140.645V26.5425H134.083Z" fill="black"/>
<path fill-rule="evenodd" clip-rule="evenodd" d="M143.765 26.5429H151.074V17.3281H143.765V26.5429ZM152.76 16.6135C152.665 16.389 152.534 16.1939 152.368 16.0282C152.201 15.8642 152.006 15.7312 151.783 15.6333C151.561 15.5337 151.324 15.4844 151.073 15.4844H143.765C143.515 15.4844 143.278 15.5337 143.055 15.6333C142.833 15.7312 142.638 15.8642 142.472 16.0282C142.304 16.1939 142.174 16.389 142.078 16.6135C141.984 16.8381 141.936 17.077 141.936 17.3286V26.5434C141.936 26.7958 141.984 27.0331 142.078 27.2592C142.174 27.4838 142.304 27.6797 142.472 27.8477C142.638 28.0165 142.833 28.1479 143.055 28.2443C143.278 28.3398 143.515 28.3876 143.765 28.3876H151.073C151.324 28.3876 151.561 28.3398 151.783 28.2443C152.006 28.1479 152.201 28.0165 152.368 27.8477C152.534 27.6797 152.665 27.4838 152.76 27.2592C152.855 27.0331 152.903 26.7958 152.903 26.5434V17.3286C152.903 17.077 152.855 16.8381 152.76 16.6135V16.6135Z" fill="black"/>
<path fill-rule="evenodd" clip-rule="evenodd" d="M156.732 17.3283H165.806C165.806 17.0767 165.758 16.8378 165.659 16.6133C165.561 16.3887 165.426 16.1937 165.253 16.028C165.081 15.8632 164.879 15.731 164.648 15.6323C164.417 15.5336 164.172 15.4834 163.914 15.4834H156.732C156.474 15.4834 156.228 15.5336 155.998 15.6323C155.766 15.731 155.564 15.8632 155.393 16.028C155.22 16.1937 155.085 16.3887 154.987 16.6133C154.889 16.8378 154.839 17.0767 154.839 17.3283V26.5425C154.839 26.7941 154.889 27.0322 154.987 27.2575C155.085 27.4821 155.22 27.6788 155.393 27.8468C155.564 28.0148 155.766 28.147 155.998 28.2433C156.228 28.3388 156.474 28.3866 156.732 28.3866H163.914C164.172 28.3866 164.417 28.3388 164.648 28.2433C164.879 28.147 165.081 28.0148 165.253 27.8468C165.426 27.6788 165.561 27.4821 165.659 27.2575C165.758 27.0322 165.806 26.7941 165.806 26.5425H156.732V17.3283Z" fill="black"/>
<path fill-rule="evenodd" clip-rule="evenodd" d="M167.097 28.3866H169.032V15.4834H167.097V28.3866Z" fill="black"/>
<path fill-rule="evenodd" clip-rule="evenodd" d="M145.161 23.2252L149.677 20.6445L145.161 23.2252Z" fill="black"/>
<path fill-rule="evenodd" clip-rule="evenodd" d="M149.677 21.6556V19.3555L145.161 22.2183V24.5168L149.677 21.6556Z" fill="black"/>
<path fill-rule="evenodd" clip-rule="evenodd" d="M170.323 22.5828V21.0532L176.476 15.4834H179.076L172.096 21.8088L179.355 28.3866H176.755L170.323 22.5828Z" fill="black"/>
<path fill-rule="evenodd" clip-rule="evenodd" d="M112.998 21.5572C112.827 21.3892 112.628 21.2578 112.398 21.1615C112.169 21.0659 111.926 21.0173 111.669 21.0173H105.288V17.3283H113.548C113.548 17.0767 113.499 16.8378 113.402 16.6133C113.303 16.3887 113.17 16.1937 112.998 16.028C112.827 15.864 112.628 15.731 112.398 15.6331C112.169 15.5336 111.926 15.4834 111.669 15.4834H105.288C105.032 15.4834 104.788 15.5336 104.56 15.6331C104.33 15.731 104.13 15.864 103.959 16.028C103.787 16.1937 103.653 16.3887 103.555 16.6133C103.458 16.8378 103.41 17.0767 103.41 17.3283V21.0173C103.41 21.2689 103.458 21.5078 103.555 21.7324C103.653 21.9585 103.787 22.1536 103.959 22.3176C104.13 22.4832 104.33 22.6146 104.56 22.7141C104.788 22.8129 105.032 22.8622 105.288 22.8622H111.669V26.5425H111.658V26.556H103.226C103.228 26.8029 103.276 27.0362 103.373 27.2575C103.47 27.4821 103.606 27.6788 103.776 27.8468C103.947 28.0156 104.147 28.147 104.376 28.2433C104.606 28.3388 104.848 28.3866 105.106 28.3866H111.669C111.926 28.3866 112.169 28.3388 112.398 28.2433C112.628 28.147 112.827 28.0156 112.998 27.8468C113.17 27.6788 113.303 27.4821 113.402 27.2575C113.499 27.0322 113.548 26.7941 113.548 26.5425V22.8622C113.548 22.6106 113.499 22.3718 113.402 22.1472C113.303 21.9219 113.17 21.726 112.998 21.5572Z" fill="black"/>
<path fill-rule="evenodd" clip-rule="evenodd" d="M27.7419 31.9487C27.6951 31.9117 27.6682 31.8844 27.6356 31.8652C27.4033 31.7263 27.1701 31.589 26.9369 31.4493C26.1684 30.9909 25.3991 30.5317 24.6289 30.0725C24.2816 29.8654 23.9342 29.6583 23.5868 29.4512C22.8992 29.0417 22.2091 28.6323 21.5207 28.2229C20.9013 27.8536 20.2811 27.4851 19.6617 27.115C19.2762 26.8855 18.8931 26.6526 18.5085 26.423C17.6908 25.9358 16.8731 25.4501 16.057 24.962C15.4732 24.6128 14.8919 24.2603 14.3097 23.9095C14.2455 23.871 14.1939 23.8493 14.113 23.8991C13.5071 24.27 12.8972 24.6344 12.2873 24.9989C11.2007 25.6467 10.1118 26.293 9.0244 26.9416C8.22177 27.4193 7.42072 27.9002 6.6173 28.3786C5.5339 29.0241 4.44971 29.6687 3.36553 30.3142C2.68027 30.722 1.99661 31.1298 1.31294 31.5384C1.0988 31.6661 0.887042 31.7953 0.645142 31.9414C0.819627 32.0482 0.960008 32.1373 1.10436 32.2216C1.79754 32.6302 2.49231 33.0356 3.1839 33.4459C3.51384 33.6409 3.83584 33.8473 4.16419 34.0439C5.09928 34.6027 6.03753 35.1574 6.97261 35.7153C7.93466 36.2877 8.89592 36.8617 9.85797 37.4349C10.6979 37.9359 11.537 38.436 12.3769 38.9369C12.9606 39.2862 13.5444 39.637 14.1305 39.983C14.1654 40.0039 14.2328 40.0047 14.2685 39.9846C14.573 39.8096 14.8736 39.6273 15.1766 39.4475C16.3639 38.7395 17.5512 38.0314 18.7385 37.3241C20.1439 36.486 21.5493 35.6487 22.9555 34.8106C24.4013 33.9484 25.8472 33.087 27.2938 32.2248C27.4389 32.1373 27.5833 32.0458 27.7419 31.9487Z" fill="black"/>
<path fill-rule="evenodd" clip-rule="evenodd" d="M16.3357 7.74107H16.7758C16.8892 5.51317 17.9272 3.76824 18.0646 3.52106C18.0646 3.52106 18.0504 3.46984 18.0286 3.40723C17.7214 3.91135 16.4581 6.05225 16.3357 7.74107M15.2939 5.93231C16.4273 6.17137 17.1227 4.48417 17.3909 3.99225C17.475 3.84019 16.5482 5.61439 15.5688 5.55666C14.4527 5.4908 14.3671 0.645508 14.3671 0.645508H14.1936C14.2199 1.25696 14.4272 5.75018 15.2939 5.93231" fill="black"/>
<path fill-rule="evenodd" clip-rule="evenodd" d="M10.3577 3.40723C10.3359 3.46902 10.3224 3.52025 10.3224 3.52025C10.4591 3.76824 11.4975 5.51317 11.6117 7.74107H12.0512C11.9288 6.05144 10.665 3.91135 10.3577 3.40723M14.1934 0.645508H14.0206C14.0206 0.645508 13.9349 5.4908 12.8177 5.55666C11.8387 5.61439 10.9115 3.84019 10.9956 3.99225C11.2646 4.48417 11.9596 6.17055 13.0934 5.93231C13.9612 5.74936 14.1678 1.25696 14.1934 0.645508" fill="black"/>
<path fill-rule="evenodd" clip-rule="evenodd" d="M17.9886 3.82175L18.0531 3.7824L17.9886 3.82175Z" fill="black"/>
<path fill-rule="evenodd" clip-rule="evenodd" d="M18.0529 3.78302L18.1174 3.81722L18.0529 3.78302Z" fill="black"/>
<path fill-rule="evenodd" clip-rule="evenodd" d="M18.393 3.53171L18.3813 3.56462L18.393 3.53171Z" fill="black"/>
<path fill-rule="evenodd" clip-rule="evenodd" d="M18.3949 3.56462L18.3794 3.53171L18.3949 3.56462Z" fill="black"/>
<path fill-rule="evenodd" clip-rule="evenodd" d="M12.2761 3.87964C12.3858 4.27384 12.3787 5.02795 12.3716 5.08223C12.4542 5.2003 12.8239 5.20315 12.8852 4.9613C12.6871 4.7185 12.3929 4.00056 12.3652 3.87012C12.3032 3.89963 12.2761 3.87964 12.2761 3.87964Z" fill="black"/>
<path fill-rule="evenodd" clip-rule="evenodd" d="M16.1109 3.87964C16.0012 4.27384 16.0083 5.02795 16.0154 5.08223C15.9334 5.2003 15.5631 5.20315 15.5018 4.9613C15.6999 4.7185 15.9941 4.00056 16.0218 3.87012C16.0838 3.89963 16.1109 3.87964 16.1109 3.87964Z" fill="black"/>
<path fill-rule="evenodd" clip-rule="evenodd" d="M15.8309 4.19592L15.7818 4.18947L15.8309 4.19592Z" fill="black"/>
<path fill-rule="evenodd" clip-rule="evenodd" d="M16.4512 4.19238L16.4518 4.19302L16.4512 4.19238Z" fill="black"/>
<path fill-rule="evenodd" clip-rule="evenodd" d="M11.9069 12.4088C11.9069 12.4781 11.8696 12.5427 11.8094 12.5781L9.84554 13.7191L3.80177 17.2294C3.71304 17.2806 3.65838 17.3759 3.65838 17.4782V24.8343C3.65838 24.8698 3.69799 24.8918 3.7273 24.8721L9.82574 20.9964C9.83841 20.9886 9.84554 20.9744 9.84554 20.9594V17.8956C9.84554 17.8609 9.80831 17.8389 9.77741 17.857L5.88607 20.1177C5.82587 20.1531 5.75061 20.109 5.75061 20.0397V18.2507C5.75061 18.1908 5.78229 18.1357 5.83458 18.105L9.84554 15.7742L11.8221 14.627C11.8593 14.6049 11.9069 14.6317 11.9069 14.6758V22.2791C11.9069 22.2957 11.8982 22.3106 11.8847 22.3185L9.84554 23.5028L3.65838 27.1037L1.66518 28.2636C1.63507 28.2809 1.59705 28.2596 1.59705 28.225V16.6821C1.59705 16.5491 1.66834 16.4254 1.7848 16.3585L2.38926 16.0073L9.84554 11.6757L11.8395 10.5182C11.8688 10.5001 11.9069 10.5221 11.9069 10.5568V12.4088ZM13.5452 7.89063C13.5452 7.8489 13.5413 7.80717 13.5365 7.74023C13.1238 7.98197 12.7356 8.20954 12.3482 8.43632C11.4086 8.98515 10.4706 9.53477 9.53029 10.0852C8.58519 10.6387 7.63849 11.1939 6.6918 11.7482C5.47972 12.4577 4.26605 13.1664 3.05318 13.8766C2.07401 14.4499 1.09642 15.0263 0.114871 15.5971C0.0269352 15.6483 0 15.7034 0 15.8003C0.00237663 20.8059 0.00158442 25.8116 0.00237663 30.8172C0.00237663 30.8613 0.00633769 30.9062 0.00792211 30.966C0.0586236 30.9471 0.0918964 30.9401 0.119624 30.9243C0.614755 30.6345 1.11068 30.3448 1.60502 30.0542C2.71411 29.4038 3.82162 28.7526 4.93072 28.1038C6.40265 27.2423 7.87457 26.3832 9.3465 25.5226C10.7004 24.7312 12.0535 23.9391 13.4074 23.1485C13.5048 23.0918 13.5484 23.0288 13.5484 22.9068C13.5444 17.9011 13.5452 12.8955 13.5452 7.89063V7.89063Z" fill="black"/>
<path fill-rule="evenodd" clip-rule="evenodd" d="M18.0646 18.0645L24.5162 21.6567L24.4519 25.1612L18.1973 21.6786C18.1155 21.6332 18.0646 21.5502 18.0646 21.4602V18.0645Z" fill="black"/>
<path fill-rule="evenodd" clip-rule="evenodd" d="M24.5161 17.4841L24.4839 19.2742C24.4839 19.3365 24.4129 19.3745 24.3592 19.343L18.2083 15.7637C18.1183 15.7103 18.0646 15.6164 18.0646 15.5136V13.5479L24.3832 17.251C24.4666 17.2995 24.5178 17.3886 24.5161 17.4841Z" fill="black"/>
<path fill-rule="evenodd" clip-rule="evenodd" d="M25.7791 21.0777L26.6902 22.4123C26.744 22.4902 26.7725 22.5832 26.7725 22.6784V28.3493L24.4949 27.0044V27.0036L18.4702 23.4485V23.4493L16.4564 22.2611V10.4273H16.4627V10.3525L16.5879 10.4273H16.5903L18.4702 11.5447V11.5454L24.6985 15.2462V15.2446L26.7725 16.4761V16.4777L26.7773 20.4714C26.7773 20.5351 26.7385 20.5926 26.6799 20.6162L25.8076 20.9816C25.7696 20.9973 25.7561 21.0438 25.7791 21.0777ZM28.2715 15.5977C27.2907 15.0268 26.3131 14.4504 25.334 13.8764C24.1211 13.1662 22.9074 12.4575 21.6953 11.7481C20.7478 11.1945 19.8027 10.6394 18.8568 10.0851C17.9165 9.53471 16.9785 8.98511 16.0389 8.43629C15.6516 8.20873 15.2634 7.98196 14.8506 7.74023C14.8459 7.80716 14.8411 7.84889 14.8411 7.89063C14.8411 12.8953 14.8419 17.9008 14.8387 22.907C14.8387 23.0283 14.8831 23.0913 14.9806 23.148C16.3344 23.9385 17.6867 24.7307 19.0406 25.522C20.5126 26.3826 21.9845 27.2424 23.4556 28.1031C24.5655 28.7519 25.673 29.4031 26.7821 30.0535C27.2772 30.344 27.7724 30.6338 28.2683 30.9235C28.2952 30.9393 28.3285 30.9464 28.3784 30.966C28.3816 30.9054 28.3855 30.8613 28.3855 30.8164C28.3855 25.811 28.3855 20.8063 28.3871 15.8008C28.3871 15.7032 28.3602 15.648 28.2715 15.5977Z" fill="black"/>
<path fill-rule="evenodd" clip-rule="evenodd" d="M18.0644 11.6126L16.1289 10.3223L18.0644 11.6126Z" fill="black"/>
<path fill-rule="evenodd" clip-rule="evenodd" d="M14.7051 0.267194C14.922 0.555312 14.869 0.958281 14.5881 1.16719C14.3053 1.37709 13.8995 1.31175 13.6826 1.02363C13.4647 0.73551 13.5177 0.331551 13.8005 0.12264C14.0824 -0.0862698 14.4872 -0.0219136 14.7051 0.267194Z" fill="black"/>
<path fill-rule="evenodd" clip-rule="evenodd" d="M18.556 3.42211C18.6276 3.51824 18.6102 3.65243 18.5173 3.72211C18.4244 3.79179 18.2902 3.7705 18.2186 3.67437C18.1463 3.57824 18.1644 3.4434 18.2573 3.37372C18.3508 3.30469 18.485 3.32598 18.556 3.42211Z" fill="black"/>
<path fill-rule="evenodd" clip-rule="evenodd" d="M10.1691 3.42204C10.24 3.51817 10.2233 3.65236 10.1297 3.72204C10.0368 3.79171 9.90327 3.77042 9.83166 3.6743C9.7594 3.57817 9.77682 3.44397 9.86972 3.3743C9.96327 3.30462 10.0975 3.32591 10.1691 3.42204Z" fill="black"/>
<path fill-rule="evenodd" clip-rule="evenodd" d="M12.0726 4.1927C12.0726 4.27076 12.0113 4.33399 11.9358 4.33399C11.8597 4.33399 11.7984 4.27076 11.7984 4.1927C11.7984 4.11463 11.8603 4.05141 11.9358 4.05141C12.0119 4.05141 12.0732 4.11463 12.0726 4.1927Z" fill="black"/>
<path fill-rule="evenodd" clip-rule="evenodd" d="M16.3144 4.1927C16.315 4.27076 16.377 4.33399 16.4518 4.33399C16.5279 4.33399 16.5892 4.27076 16.5886 4.1927C16.5886 4.11463 16.5273 4.05141 16.4518 4.05141C16.3763 4.05141 16.3144 4.11463 16.3144 4.1927Z" fill="black"/>
</g>
</svg>
