<svg width="69" height="60" viewBox="0 0 69 60" fill="none" xmlns="http://www.w3.org/2000/svg">
<path d="M68.0387 11.1068L48.8065 0.0617056C48.735 0.0212773 48.6543 1.83557e-05 48.5721 1.83557e-05C48.4899 1.83557e-05 48.4092 0.0212773 48.3377 0.0617056L34.1403 8.21775L19.9429 0.0617056C19.8717 0.0212693 19.7911 0 19.7091 0C19.6271 0 19.5465 0.0212693 19.4752 0.0617056L0.238949 11.1078C0.167864 11.1483 0.10874 11.2067 0.0675142 11.2771C0.0262886 11.3474 0.00441381 11.4274 0.00408936 11.5088V33.6001C0.00461674 33.6815 0.0265766 33.7614 0.0677818 33.8317C0.108987 33.9021 0.168 33.9605 0.238949 34.0011L19.4752 45.0483C19.5463 45.0893 19.627 45.1107 19.7091 45.1104C19.7912 45.111 19.872 45.0895 19.9429 45.0483L34.1403 36.8972L48.3377 45.0483C48.4091 45.089 48.4899 45.1104 48.5721 45.1104C48.6543 45.1104 48.7351 45.089 48.8065 45.0483L68.0387 34.0041C68.1093 33.9632 68.168 33.9047 68.2091 33.8344C68.2501 33.7641 68.2719 33.6844 68.2726 33.6031V11.5098C68.2723 11.4282 68.2506 11.3481 68.2096 11.2774C68.1685 11.2067 68.1096 11.1479 68.0387 11.1068V11.1068ZM19.7081 22.0187L1.41123 11.5108L19.7091 1.00001L33.2039 8.75006L29.1015 11.1058C29.0308 11.1467 28.9721 11.2052 28.9311 11.2755C28.8901 11.3458 28.8682 11.4256 28.8676 11.5068V16.7587L19.7081 22.0187ZM20.1778 43.8393V22.8236L28.8676 17.8344V33.6001C28.8681 33.6814 28.89 33.7612 28.931 33.8315C28.972 33.9018 29.0308 33.9603 29.1015 34.0011L33.2039 36.3569L20.1778 43.8393ZM48.5716 22.0187L39.4121 16.7597L38.4767 16.2224L35.0778 14.2696L34.1393 13.7313L30.2707 11.5098L34.1403 9.28738L35.0768 8.75106L48.5726 1.00001L66.8715 11.5098L48.5716 22.0187ZM67.3392 33.3325L49.0403 43.8393V22.553V22.8206L67.3392 12.3168V33.3325Z" fill="#EE1C29"/>
<path d="M49.0402 22.5557H49.0392V22.8233H49.0402V22.5557Z" fill="#EE1C29"/>
<path d="M49.0402 22.5557V43.839L49.0392 22.8233V22.5557H49.0402Z" fill="#EE1C29"/>
<path d="M32.6292 55.151C32.0494 55.1506 31.4709 55.2054 30.9015 55.3144C30.8763 55.3144 30.8511 55.3224 30.8259 55.3284V56.6747H30.8552C31.437 56.5416 32.0322 56.4743 32.6292 56.4742C32.7592 56.4742 32.8883 56.4802 33.0183 56.4863V58.2907C32.6524 58.4581 31.9962 58.5293 31.5063 58.5293C29.6819 58.5293 28.4572 57.4677 28.4572 55.8226C28.4572 54.0623 29.8442 53.125 31.7341 53.125C32.5675 53.1341 33.3904 53.3107 34.1533 53.6443L34.2793 52.2047C33.4503 51.8375 32.5519 51.6505 31.6444 51.6564C28.8967 51.6564 26.7789 53.1841 26.7789 55.8226C26.7789 58.2566 28.6205 59.9939 31.5728 59.9939C32.6 59.9939 33.7995 59.7182 34.628 59.2661V55.3685L34.3609 55.3144C33.7902 55.2054 33.2104 55.1507 32.6292 55.151V55.151Z" fill="#EE1C29"/>
<path d="M14.3903 56.896C14.3903 58.0057 13.6101 58.554 12.4398 58.554C11.3411 58.554 10.5015 58.0528 10.5015 56.896V51.7764H8.8887V57.0032C8.8887 59.0452 10.4249 59.9996 12.4408 59.9996C14.3076 59.9996 16.0061 59.1164 16.0061 57.0032V51.7764H14.3933L14.3903 56.896Z" fill="#EE1C29"/>
<path d="M23.836 57.3371L19.1489 51.7744H17.6783V59.8803H19.2991V54.3768L23.962 59.8803H25.4568V51.7744H23.836V57.3371Z" fill="#EE1C29"/>
<path d="M68.0088 55.3144C66.8667 55.0964 65.6934 55.0964 64.5514 55.3144C64.5262 55.3144 64.501 55.3224 64.4758 55.3284V56.6747H64.505C65.0869 56.5416 65.682 56.4743 66.2791 56.4742C66.4091 56.4742 66.5381 56.4802 66.6671 56.4863V58.2907C66.3022 58.4581 65.6461 58.5293 65.1552 58.5293C63.3307 58.5293 62.106 57.4677 62.106 55.8226C62.106 54.0623 63.493 53.125 65.383 53.125C66.2163 53.1341 67.0392 53.3107 67.8021 53.6443L67.9281 52.2047C67.0991 51.8375 66.2008 51.6505 65.2933 51.6564C62.5455 51.6564 60.4277 53.1841 60.4277 55.8226C60.4277 58.2566 62.2693 59.9939 65.2217 59.9939C66.2488 59.9939 67.4483 59.7182 68.2759 59.2661V55.3685L68.0088 55.3144Z" fill="#EE1C29"/>
<path d="M57.4852 57.3371L52.7981 51.7744H51.3274V59.8803H52.9483V54.3768L57.6112 59.8803H59.106V51.7744H57.4852V57.3371Z" fill="#EE1C29"/>
<path d="M44.6133 54.2304C43.2375 54.6169 41.9058 55.1447 40.6398 55.8053V51.7754H39.019V59.8803H40.6398V57.5486C41.8937 56.8231 43.2268 56.2426 44.6133 55.8183V59.8803H46.2261V51.7754H44.6133V54.2304Z" fill="#EE1C29"/>
<path d="M5.59227 54.2595C4.21518 54.6549 2.88345 55.1925 1.61882 55.8634V51.7754H0V59.8803H1.61277V57.6077C2.86527 56.8727 4.19848 56.283 5.58623 55.8504V59.8803H7.20605V51.7754H5.59227V54.2595Z" fill="#EE1C29"/>
<path d="M49.5869 51.7754H47.9671V59.8793H49.5869V51.7754Z" fill="#EE1C29"/>
</svg>
