<svg width="138" height="32" viewBox="0 0 138 32" fill="none" xmlns="http://www.w3.org/2000/svg">
<path d="M102.359 14.2136C102.359 10.7817 99.5788 7.99316 96.1571 7.99316C94.4074 7.99316 92.8326 8.71466 91.705 9.88466C90.5774 8.73416 89.0027 8.01266 87.2724 8.01266C86.1059 8.01266 85.0172 8.34416 84.084 8.90966H81.0705V24.0221H84.6089V14.2331C84.6089 12.7511 85.7948 11.5617 87.2724 11.5617C88.7499 11.5617 89.9359 12.7511 89.9359 14.2331L89.9553 24.0026H93.4937V14.2136C93.4937 12.7316 94.6796 11.5422 96.1571 11.5422C97.6347 11.5422 98.8206 12.7316 98.8206 14.2136V24.0026H102.359C102.359 24.0026 102.359 14.2136 102.359 14.2136Z" fill="#012FA6"/>
<path d="M35.8706 7.99316C34.2375 7.99316 32.7017 8.50016 31.438 9.33866H27.8996V27.9806H31.438V22.6376C32.7017 23.4956 34.2375 23.9831 35.8706 23.9831C40.2839 23.9831 43.8416 20.3951 43.8416 15.9881C43.8416 11.5812 40.2839 7.99316 35.8706 7.99316ZM35.8706 20.4341C33.421 20.4341 31.438 18.4451 31.438 15.9881C31.438 13.5311 33.421 11.5422 35.8706 11.5422C38.3203 11.5422 40.3033 13.5311 40.3033 15.9881C40.3033 18.4451 38.3203 20.4341 35.8706 20.4341Z" fill="#012FA6"/>
<path d="M137.142 24.0049L131.387 16.01L136.986 8.22949H132.767L129.268 13.085L125.769 8.22949H121.569L127.168 16.01L121.414 24.0049H125.613L129.268 18.9154L132.923 24.0049H137.142Z" fill="#012FA6"/>
<path d="M53.1545 7.99455C52.0269 7.99455 50.9771 8.26755 50.0439 8.77455V3.99707H46.5055V24.004H50.0439V14.6635C50.0439 12.9475 51.4242 11.563 53.1545 11.563C54.8848 11.563 56.2652 12.9475 56.2652 14.6635V24.004H59.8035V14.6635C59.8035 10.978 56.829 7.99455 53.1545 7.99455Z" fill="#012FA6"/>
<path d="M78.3119 17.3356C78.3897 16.9066 78.4285 16.4581 78.4285 16.0096C78.4285 11.5831 74.8513 8.01465 70.4575 8.01465C66.0637 8.01465 62.4865 11.6026 62.4865 16.0096C62.4865 20.4166 66.0637 24.0046 70.4575 24.0046C73.4126 24.0046 75.9789 22.3861 77.3592 20.0071L74.2875 18.2326C73.5293 19.5586 72.0906 20.4556 70.4575 20.4556C68.4745 20.4556 66.7831 19.1491 66.2193 17.3356H78.3119ZM70.4381 11.5636C72.4211 11.5636 74.0931 12.8701 74.6569 14.6641H66.1998C66.7831 12.8701 68.4745 11.5636 70.4381 11.5636Z" fill="#012FA6"/>
<path d="M120.849 17.3356C120.926 16.9066 120.965 16.4581 120.965 16.0096C120.965 11.5831 117.388 8.01465 112.994 8.01465C108.6 8.01465 105.023 11.6026 105.023 16.0096C105.023 20.4166 108.6 24.0046 112.994 24.0046C115.949 24.0046 118.516 22.3861 119.896 20.0071L116.824 18.2326C116.066 19.5586 114.627 20.4556 112.994 20.4556C111.011 20.4556 109.339 19.1491 108.756 17.3356H120.849ZM112.994 11.5636C114.977 11.5636 116.649 12.8701 117.213 14.6641H108.756C109.32 12.8701 111.011 11.5636 112.994 11.5636Z" fill="#012FA6"/>
<path d="M0 24.0057C0 28.4127 3.57724 32.0007 7.97102 32.0007V24.0057V20.0082V16.0107C7.97102 20.4177 4.39378 24.0057 0 24.0057Z" fill="#37D201"/>
<path d="M0 7.99414V15.9891V23.9841C4.39378 23.9841 7.97102 20.3961 7.97102 15.9891C7.97102 11.5821 4.39378 7.99414 0 7.99414Z" fill="#0A5BDF"/>
<path d="M11.956 15.9891C11.956 20.3961 15.5333 23.9841 19.9271 23.9841V15.9891V7.99414C19.9271 12.4206 16.3498 15.9891 11.956 15.9891Z" fill="#0A5BDF"/>
<path d="M11.956 0V7.99497V15.9899C16.3498 15.9899 19.9271 12.402 19.9271 7.99497C19.9271 3.58799 16.3498 0 11.956 0Z" fill="#3CEAF3"/>
</svg>
