<svg width="112" height="32" viewBox="0 0 112 32" fill="none" xmlns="http://www.w3.org/2000/svg">
<mask id="mask0_204_7046" style="mask-type:alpha" maskUnits="userSpaceOnUse" x="0" y="0" width="33" height="32">
<path fill-rule="evenodd" clip-rule="evenodd" d="M0 0H32.0003V32H0V0Z" fill="white"/>
</mask>
<g mask="url(#mask0_204_7046)">
<path fill-rule="evenodd" clip-rule="evenodd" d="M16.0002 31.1378C7.65065 31.1159 0.899898 24.3295 0.92188 15.9799C0.943862 7.63038 7.73041 0.879634 16.08 0.901616C24.4059 0.923598 31.1472 7.67351 31.1581 15.9996C31.1064 24.3387 24.3592 31.0861 16.0201 31.1378M16.0003 0C7.16353 0 -6.10352e-05 7.16338 -6.10352e-05 15.9999C-6.10352e-05 24.8366 7.16353 32 16.0003 32C24.8368 32 32.0004 24.8366 32.0004 15.9999C31.9893 7.16798 24.8324 0.0106769 16.0003 0" fill="#5F5A50"/>
</g>
<path fill-rule="evenodd" clip-rule="evenodd" d="M24.5172 25.2506V6.74219C24.7655 6.95083 24.9692 7.19411 25.2124 7.43738V24.5306C24.9692 24.7739 24.7655 25.0272 24.5172 25.2258V25.2506ZM10.677 27.3369V22.9617C13.7521 25.252 17.9431 25.3338 21.1055 23.1654L21.3091 23.0462V27.3766C17.9385 28.9585 14.0359 28.9437 10.677 27.3367V27.3369ZM6.83311 24.5205V7.48212C7.07659 7.23363 7.28502 6.98535 7.52851 6.78672V25.2505C7.28502 24.9676 7.07659 24.7539 6.83311 24.5157V24.5205ZM5.93429 8.53516V23.433C2.67405 19.0023 2.67405 12.9659 5.93429 8.53516V8.53516ZM21.3887 4.65704V8.95277C18.3164 6.65333 14.1196 6.57154 10.9599 8.74914L10.7613 8.86327V4.56774C14.1409 3.01878 18.0329 3.04799 21.3887 4.64724V4.65704ZM23.2706 10.9136V5.72422C23.5587 5.92785 23.802 6.13128 24.0902 6.33491V12.4679C23.8746 11.9215 23.6001 11.4003 23.2706 10.9136V10.9136ZM22.0839 9.52338V4.98438C22.3322 5.10852 22.5807 5.27251 22.8636 5.43629V10.3029C22.6153 10.0152 22.3322 9.77167 22.0839 9.52338V9.52338ZM15.9558 8.4212C14.0113 8.41369 12.1429 9.17794 10.7613 10.5466V9.68745L11.3325 9.24075C12.7206 8.30123 14.3591 7.80112 16.0353 7.8055C20.3657 7.8055 23.8419 11.0384 23.8419 14.9615V25.7973C23.6382 25.9611 23.4348 26.0855 23.231 26.2492V15.4531C23.2706 11.5696 19.9983 8.4212 15.9907 8.4212H15.9558ZM22.1335 15.9447C22.1335 12.5574 19.3878 9.81169 16.0007 9.81169C14.6735 9.81169 13.3824 10.2419 12.3206 11.0383C11.6864 11.5061 11.1456 12.0888 10.7266 12.7565V11.2021C12.0425 9.68943 13.9508 8.82315 15.9558 8.82836C19.6584 8.76452 22.7133 11.711 22.784 15.4133V26.4924C22.5806 26.6166 22.3768 26.7805 22.1335 26.9047V15.9447ZM9.86741 15.9843C9.83444 19.3712 12.5533 22.1438 15.9406 22.177C17.288 22.1899 18.6022 21.7591 19.6803 20.9504C20.3133 20.4828 20.8537 19.9019 21.2745 19.237V20.7814C20.9325 21.1772 20.5478 21.5335 20.1272 21.8442C18.9367 22.6994 17.506 23.1568 16.0403 23.1503C12.3377 23.2139 9.28258 20.2677 9.21206 16.5653V5.51586C9.41549 5.39673 9.61912 5.27259 9.86741 5.10859V15.9843ZM21.2893 15.9843C21.2835 16.3269 21.2551 16.6684 21.2048 17.0073C20.6158 19.8569 17.8282 21.6898 14.9783 21.1006C12.5474 20.598 10.7967 18.4667 10.7763 15.9843V15.9447C10.7796 15.3308 10.8906 14.7224 11.104 14.1468C11.2259 13.8345 11.3755 13.5338 11.551 13.2482C11.9096 12.6757 12.3672 12.1712 12.9017 11.7583C15.2053 10.0165 18.485 10.4722 20.2267 12.776C20.9213 13.6949 21.2931 14.8174 21.2843 15.9695L21.2893 15.9843ZM8.20391 16.9275V6.17113C8.40754 6.00735 8.61097 5.8832 8.81961 5.72422V16.4755C8.89034 20.4249 12.1454 23.571 16.095 23.5076C17.6491 23.5045 19.1641 23.0188 20.4301 22.117C20.7331 21.8919 21.02 21.6465 21.2893 21.382V22.2412H21.2497C21.0857 22.3653 20.882 22.5293 20.7183 22.6482C19.3293 23.5856 17.6909 24.0837 16.0155 24.0787C11.6801 24.0787 8.20391 20.8508 8.20391 16.9275V16.9275ZM9.2269 21.6258C9.47018 21.9137 9.72347 22.2018 9.96174 22.4451V26.9841C9.70928 26.8479 9.46413 26.6987 9.2269 26.5372V21.6258ZM8.77499 21.0151V26.2097C8.49186 26.001 8.20393 25.7974 7.96045 25.594V19.4211C8.16554 19.9838 8.43907 20.519 8.77499 21.0151V21.0151ZM28.5645 15.9846C28.5831 18.6844 27.7103 21.3152 26.0814 23.4683V8.50078C27.7032 10.6579 28.5749 13.2858 28.5645 15.9846V15.9846ZM16.0155 2.53125C8.58552 2.53125 2.56244 8.55454 2.56244 15.9843C2.56244 23.414 8.58552 29.4371 16.0155 29.4371C23.4452 29.4371 29.4683 23.414 29.4683 15.9843C29.4437 8.56455 23.435 2.55587 16.0155 2.53125V2.53125Z" fill="#5F5A50"/>
<path fill-rule="evenodd" clip-rule="evenodd" d="M15.9853 30.2576C8.09992 30.2465 1.71682 23.8454 1.72779 15.96C1.73896 8.07474 8.1402 1.69159 16.0254 1.70255C23.9107 1.71352 30.2938 8.1148 30.2829 16.0002C30.247 23.8751 23.8603 30.2441 15.9853 30.2576M15.9853 1.25098C7.84776 1.26763 1.26456 7.87765 1.28122 16.0153C1.29788 24.1528 7.90806 30.7361 16.0454 30.7192C24.1595 30.7028 30.7328 24.1292 30.7495 16.0153C30.7552 7.86669 24.1538 1.25646 16.0053 1.25098H15.9853" fill="#5F5A50"/>
<mask id="mask1_204_7046" style="mask-type:alpha" maskUnits="userSpaceOnUse" x="98" y="7" width="14" height="18">
<path fill-rule="evenodd" clip-rule="evenodd" d="M98.2148 7.04395H111.907V24.1536H98.2148V7.04395Z" fill="white"/>
</mask>
<g mask="url(#mask1_204_7046)">
<path fill-rule="evenodd" clip-rule="evenodd" d="M98.2148 7.04395C98.2759 9.7101 98.2148 22.6636 98.2148 24.1536H111.521L111.907 23.2861C110.235 23.5311 100.848 23.4086 100.848 23.4086L100.782 7.04395H98.2148Z" fill="#5F5A50"/>
</g>
<path fill-rule="evenodd" clip-rule="evenodd" d="M50.5143 6.37598V17.3417C50.5273 18.1665 50.3777 18.9858 50.0739 19.7524C49.2485 21.5266 47.6074 23.2606 45.5161 23.3008C43.4246 23.3408 41.7838 21.5266 40.9583 19.8175C40.6552 19.0506 40.5056 18.2317 40.518 17.407V6.38103H37.7963V17.2116C37.7963 21.5866 40.5779 24.3132 45.0108 24.3132H45.9563C50.3842 24.3132 53.171 21.5866 53.171 17.2113V6.37598H50.5143Z" fill="#5F5A50"/>
<path fill-rule="evenodd" clip-rule="evenodd" d="M58.6152 7.0166L58.296 8.20143H64.5704V24.3132H67.1328V8.20143H73.6708V7.0166H58.6152Z" fill="#5F5A50"/>
<path fill-rule="evenodd" clip-rule="evenodd" d="M76.8739 15.5405C76.8739 21.327 81.5237 24.3132 85.9235 24.3132C88.0915 24.1996 90.2274 23.7277 92.2487 22.9156V16.4303H90.3234V22.5335C89.1665 23.1447 87.9019 23.5121 86.6047 23.6145C82.3322 23.6145 79.1082 20.5626 79.1082 15.6007C79.1082 11.5789 81.4012 7.21022 86.1734 7.21022C88.2165 7.21022 89.9559 7.65251 91.5628 10.136L92.1853 8.48197C90.3608 7.05096 88.1113 6.30874 85.8156 6.38077C80.2988 6.32036 76.9523 10.5785 76.8885 15.5405" fill="#5F5A50"/>
</svg>
