<svg width="47" height="70" viewBox="0 0 47 70" fill="none" xmlns="http://www.w3.org/2000/svg">
<g clip-path="url(#clip0_207_27985)">
<g clip-path="url(#clip1_207_27985)">
<path d="M7.57483 44.4913C8.82018 45.6284 10.1858 46.6232 11.6469 47.4574C12.9295 45.6072 14.6342 44.0967 16.6165 43.0539C18.5988 42.011 20.8005 41.4666 23.035 41.4666C25.2695 41.4666 27.4712 42.011 29.4535 43.0539C31.4358 44.0967 33.1404 45.6072 34.423 47.4574C35.8722 46.6127 37.231 45.6187 38.4779 44.4913C30.9204 35.4534 15.1324 35.4534 7.57483 44.4913Z" fill="#0032A0"/>
<path d="M44.8621 20.0302C44.2808 18.1885 43.469 16.4294 42.4464 14.7959C36.5142 18.2349 29.7953 20.0442 22.9573 20.0442C16.1194 20.0442 9.40044 18.2349 3.4682 14.7959C2.44567 16.4294 1.63388 18.1885 1.05255 20.0302C15.2827 24.7503 30.6319 24.7503 44.8621 20.0302V20.0302Z" fill="#0032A0"/>
<path d="M20.0327 50.2844C21.0221 50.4184 22.0195 50.4825 23.0177 50.4764C24.0217 50.4831 25.0249 50.4189 26.02 50.2844V50.2844C26.0514 49.8676 25.9972 49.4487 25.8609 49.054C25.7247 48.6593 25.5093 48.2973 25.2283 47.9907C24.9472 47.6841 24.6066 47.4395 24.2277 47.2722C23.8488 47.1049 23.4398 47.0186 23.0264 47.0186C22.6129 47.0186 22.2039 47.1049 21.825 47.2722C21.4462 47.4395 21.1055 47.6841 20.8245 47.9907C20.5434 48.2973 20.328 48.6593 20.1918 49.054C20.0555 49.4487 20.0014 49.8676 20.0327 50.2844V50.2844Z" fill="#0032A0"/>
<path d="M13.8037 48.5398C15.0707 49.1065 16.3879 49.5505 17.7378 49.8659C18.1406 48.7666 18.8667 47.8184 19.8183 47.1488C20.7699 46.4791 21.9015 46.1202 23.0608 46.1202C24.2202 46.1202 25.3518 46.4791 26.3034 47.1488C27.255 47.8184 27.981 48.7666 28.3839 49.8659C29.7393 49.5506 31.0623 49.1066 32.3352 48.5398C31.5154 46.7534 30.2075 45.2411 28.5659 44.1814C26.9242 43.1216 25.0171 42.5586 23.0695 42.5586C21.1218 42.5586 19.2147 43.1216 17.573 44.1814C15.9314 45.2411 14.6235 46.7534 13.8037 48.5398V48.5398Z" fill="#0032A0"/>
<path d="M45.5523 22.3682C30.6816 25.3694 15.371 25.3694 0.500405 22.3682C0.165594 23.9627 -0.00212709 25.5885 2.03616e-05 27.2186C2.03616e-05 27.4629 2.03616e-05 27.7246 2.03616e-05 27.9689C15.3451 27.585 30.6845 27.585 46.0181 27.9689C46.0181 27.7246 46.0181 27.4629 46.0181 27.2186C46.0316 25.5897 45.8755 23.964 45.5523 22.3682V22.3682Z" fill="#0032A0"/>
<path d="M41.1351 12.8413C39.9881 11.3589 38.6671 10.0231 37.201 8.86328C35.4002 10.8514 33.2101 12.439 30.7698 13.5251C28.3296 14.6112 25.6925 15.172 23.0263 15.172C20.3602 15.172 17.7231 14.6112 15.2829 13.5251C12.8426 12.439 10.6525 10.8514 8.85166 8.86328C7.38561 10.0231 6.06455 11.3589 4.9176 12.8413C10.1303 16.8309 16.4889 18.9898 23.0263 18.9898C29.5638 18.9898 35.9224 16.8309 41.1351 12.8413V12.8413Z" fill="#0032A0"/>
<path d="M0.207031 30.3763C0.485958 32.31 0.995818 34.2023 1.72544 36.0119C15.4364 30.551 30.6852 30.551 44.3962 36.0119C45.114 34.2008 45.6122 32.3085 45.8801 30.3763C30.7348 28.1571 15.3523 28.1571 0.207031 30.3763V30.3763Z" fill="#0032A0"/>
<path d="M2.70892 38.1929C3.58288 39.8394 4.64876 41.3741 5.88378 42.7642C10.7383 38.8028 16.7882 36.6423 23.0263 36.6423C29.2643 36.6423 35.3142 38.8028 40.1688 42.7642C41.4038 41.3741 42.4696 39.8394 43.3436 38.1929C32.5422 31.4058 13.5103 31.4058 2.70892 38.1929Z" fill="#0032A0"/>
<path d="M36.2348 8.14806L29.1776 8.72383V12.8589C25.237 14.4983 20.8157 14.4983 16.8751 12.8589V8.72383L9.80066 8.13061L23.035 0L36.2348 8.14806Z" fill="#FF0044"/>
<path d="M24.6224 66.1263C24.3981 66.3706 24.1737 66.6149 23.9322 66.8417C23.6663 67.0775 23.363 67.2663 23.0349 67.4C22.614 67.5497 22.1697 67.6207 21.7236 67.6094C21.1166 67.6351 20.5159 67.4771 19.9981 67.1557C19.5198 66.8589 19.1364 66.4287 18.8938 65.9169C18.634 65.3734 18.5039 64.7758 18.5142 64.1722C18.5089 63.5691 18.6387 62.9726 18.8938 62.4274C19.1407 61.914 19.5228 61.4793 19.9981 61.1712C20.5029 60.8805 21.0737 60.7277 21.6546 60.7277C22.2354 60.7277 22.8063 60.8805 23.311 61.1712C23.7685 61.4587 24.1621 61.8389 24.4671 62.2878L26.1925 60.6478C25.7095 59.9498 25.0554 59.3907 24.2945 59.0251C23.4645 58.6286 22.5551 58.4315 21.6373 58.4494C20.8443 58.4414 20.0578 58.5957 19.3252 58.903L19.1181 59.0077L18.9456 59.2519L17.5307 61.4503L15.9951 63.8232C15.9868 63.986 15.9868 64.149 15.9951 64.3118C15.9705 65.3515 16.2143 66.3799 16.7025 67.2953C17.1635 68.149 17.8506 68.8559 18.6868 69.3367C19.4196 69.7401 20.2266 69.987 21.0576 70.0621C21.8887 70.1371 22.7262 70.0387 23.5181 69.7729C24.0931 69.5727 24.6343 69.2844 25.1228 68.9179C25.5668 68.5934 25.962 68.2055 26.2961 67.7664L24.6224 66.1263Z" fill="#0032A0"/>
<path d="M27.2795 58.6592V69.7908H29.7642V58.6592H27.2795Z" fill="#0032A0"/>
<path d="M38.9437 64.6961C38.6411 64.2201 38.2181 63.8346 37.7187 63.5794C37.2516 63.3173 36.7528 63.1179 36.2348 62.9862C35.6611 62.8762 35.108 62.6761 34.5956 62.393C34.424 62.3119 34.2782 62.184 34.1746 62.0237C34.0709 61.8635 34.0136 61.6771 34.0089 61.4857C34.0177 61.3355 34.0634 61.1899 34.1417 61.062C34.22 60.9341 34.3285 60.8279 34.4575 60.7529C34.746 60.5493 35.0892 60.4397 35.441 60.4388C35.9315 60.4273 36.4155 60.5542 36.8387 60.8052C37.1663 60.9966 37.4831 61.2063 37.7877 61.4334L39.2198 59.8456C39.0234 59.6412 38.8098 59.4544 38.5814 59.2873C38.2062 59.013 37.7935 58.7956 37.3563 58.6417C36.7514 58.4321 36.1148 58.3317 35.4755 58.3451C34.6992 58.3156 33.9279 58.4836 33.2324 58.8337C32.6975 59.1039 32.2505 59.5238 31.9447 60.0434C31.6388 60.563 31.4869 61.1605 31.507 61.7649C31.4939 62.1461 31.5593 62.5259 31.6989 62.8803C31.8385 63.2347 32.0493 63.5559 32.3179 63.8237C32.8969 64.3765 33.612 64.7621 34.3885 64.9403C35.0296 65.0802 35.6501 65.303 36.2348 65.6033C36.4092 65.6948 36.5558 65.8323 36.6591 66.0012C36.7624 66.1702 36.8185 66.3643 36.8214 66.563C36.8239 66.8064 36.7379 67.0423 36.5798 67.226C36.4105 67.4076 36.2045 67.5504 35.9759 67.6447C35.7386 67.7346 35.4875 67.7819 35.234 67.7843C34.6272 67.8079 34.0271 67.6501 33.5085 67.3307C33.0907 67.0809 32.7077 66.7757 32.3697 66.4234L30.7823 68.1682C31.0936 68.4976 31.4409 68.7903 31.8176 69.0405C32.2695 69.3455 32.7638 69.5808 33.2842 69.7385C33.906 69.9227 34.5517 70.0109 35.1995 70.0002C35.9377 70.0175 36.6699 69.8622 37.339 69.5465C37.9413 69.2793 38.4645 68.8584 38.8575 68.3252C39.2148 67.815 39.4076 67.2056 39.4096 66.5804C39.4551 65.9183 39.292 65.2586 38.9437 64.6961V64.6961Z" fill="#0032A0"/>
<path d="M18.2036 58.6592L16.7715 60.8576L13.6656 65.6906V69.721H11.0084V65.6906L6.47046 58.6592H9.86962L12.337 62.6198L12.8719 61.7474L14.7872 58.6592H18.2036Z" fill="#0032A0"/>
</g>
</g>
<defs>
<clipPath id="clip0_207_27985">
<rect width="46.0526" height="70" fill="white"/>
</clipPath>
<clipPath id="clip1_207_27985">
<rect width="46.0526" height="70" fill="white"/>
</clipPath>
</defs>
</svg>
